<svg xmlns="http://www.w3.org/2000/svg" width="70" height="70" viewBox="0 0 70 70" style="width: 100%; height: 100%;"><desc>Made with illustrio</desc>
  
<g class="content"><circle cx="50%" cy="50%" r="27px" class="main-fill"></circle><g class="base"><g fill="none" fill-rule="evenodd" stroke="none" class="secondary-fill">
    
    
  </g><g fill="none" transform="translate(21.636 19.09)" stroke="none" class="secondary-fill">
      <path d="M8.652,10.927 C8.74490909,13.0117273 11.4971818,14.5090909 13.3636364,14.5090909 C15.2275455,14.5090909 17.9772727,13.0117273 18.0701818,10.9276364 L18.0803636,10.899 C18.9159091,8.463 19.0909091,7.01909091 19.0909091,6.23636364 C19.0909091,2.79745455 16.5219091,0 13.3636364,0 C10.206,0 7.63636364,2.79745455 7.63636364,6.23636364 C7.63636364,7.01845455 7.81072727,8.463 8.64181818,10.8977273 L8.652,10.927 L8.652,10.927 Z" fill="none" stroke="none" class="secondary-fill"></path>
      <path d="M23.0363636,14.2545455 L19.0654545,14.2545455 L13.3636364,26.6082727 L7.66181818,14.2545455 L3.69090909,14.2545455 C1.93645455,14.2545455 0.509090909,15.6819091 0.509090909,17.4363636 L0.509090909,28.6363636 C0.509090909,30.3908182 1.93645455,31.8181818 3.69090909,31.8181818 L23.0363636,31.8181818 C24.7908182,31.8181818 26.2181818,30.3908182 26.2181818,28.6363636 L26.2181818,17.4363636 C26.2181818,15.6825455 24.7908182,14.2545455 23.0363636,14.2545455 L23.0363636,14.2545455 Z M22.5272727,22.6545455 L19.4727273,22.6545455 C19.1208182,22.6545455 18.8363636,22.3700909 18.8363636,22.0181818 C18.8363636,21.6662727 19.1208182,21.3818182 19.4727273,21.3818182 L22.5272727,21.3818182 C22.8791818,21.3818182 23.1636364,21.6662727 23.1636364,22.0181818 C23.1636364,22.3700909 22.8791818,22.6545455 22.5272727,22.6545455 L22.5272727,22.6545455 Z" fill="none" stroke="none" class="secondary-fill"></path>
      <path d="M13.3636364 19.0909091C13.0123636 19.0909091 12.7272727 19.3753636 12.7272727 19.7272727L12.7272727 23.0363636C12.7272727 23.3882727 13.0123636 23.6727273 13.3636364 23.6727273 13.7149091 23.6727273 14 23.3882727 14 23.0363636L14 19.7272727C14 19.3753636 13.7149091 19.0909091 13.3636364 19.0909091L13.3636364 19.0909091zM14 15.9090909C14 15.5578182 13.7149091 15.2727273 13.3636364 15.2727273 13.0123636 15.2727273 12.7272727 15.5578182 12.7272727 15.9090909L12.7272727 16.9272727C12.7272727 17.2791818 13.0123636 17.5636364 13.3636364 17.5636364 13.7149091 17.5636364 14 17.2791818 14 16.9272727L14 15.9090909 14 15.9090909z" fill="none" stroke="none" class="secondary-fill"></path>
    </g></g></g><style>
          .main-fill {fill: #313A3D;}
          .main-stroke {stroke: #313A3D;}
          .secondary-fill {fill: #29AB87;}
          .secondary-stroke {stroke: #29AB87;}

          .main-fill--darken {fill: #0f1213;}
          .main-stroke--darken {stroke: #0f1213;}
          .secondary-fill--darken {fill: #1a6d56;}
          .secondary-stroke--darken {stroke: #1a6d56;}

          .main-fill--darkener {fill: #000000;}
          .main-stroke--darkener {stroke: #000000;}
          .secondary-fill--darkener {fill: #104436;}
          .secondary-stroke--darkener {stroke: #104436;}
        </style></svg>