<svg xmlns="http://www.w3.org/2000/svg" width="70" height="70" viewBox="0 0 70 70" style="width: 100%; height: 100%;"><desc>Made with illustrio</desc>
  
<g class="content"><circle cx="50%" cy="50%" r="27px" class="main-fill"></circle><g class="base"><g fill="none" fill-rule="evenodd" stroke="none" class="secondary-fill">
    
    
    <path fill="none" d="M16.0588276,0.149137059 C15.6039924,0.149137059 15.2352982,0.517843529 15.2352982,0.972666471 L15.2352982,4.82009294 L11.9669076,2.74840176 C11.83119,2.65654118 11.6675547,2.60654059 11.5036724,2.60685765 C11.1477553,2.61097529 10.8111788,2.86790824 10.7187459,3.21163706 C10.6263129,3.55536588 10.7860653,3.95602941 11.0919076,4.13810765 L15.2352982,6.77597529 L15.2352982,16.8513429 L6.58823118,11.9359018 L6.58823118,6.73737235 C6.59827824,6.27020471 6.13909471,5.84980941 5.67462824,5.90097529 C5.26996647,5.94544176 4.93241824,6.33036765 4.94117235,6.73737235 L4.94117235,11.0094312 C4.94117235,11.0094312 1.30785941,8.93085941 1.14521647,8.86053412 C1.04691176,8.81802765 0.938255294,8.79619588 0.823525294,8.79619588 C0.368702353,8.79619588 -4.11764706e-06,9.16490235 -4.11764706e-06,9.61972529 C-4.11764706e-06,9.86922176 0.107828824,10.0992171 0.283084118,10.25024 C0.427308824,10.3745229 4.07904,12.4120047 4.07904,12.4120047 C4.07904,12.4120047 0.472388824,14.2125118 0.334554706,14.3164165 C0.135178235,14.4667147 -4.11764706e-06,14.7037512 -4.11764706e-06,14.9726665 C-4.11764706e-06,15.4274894 0.368702353,15.7961959 0.823525294,15.7961959 C0.959967647,15.7961959 1.08453471,15.7649841 1.19668706,15.7061224 C1.33486294,15.6335776 5.81617235,13.4028135 5.81617235,13.4028135 L14.3860253,18.2667882 L5.81617235,23.1307588 C5.81617235,23.1307588 1.33486294,20.8999824 1.19668706,20.8274294 C1.08453471,20.7686706 0.959967647,20.7373765 0.823525294,20.7373765 C0.368702353,20.7373765 -4.11764706e-06,21.1060706 -4.11764706e-06,21.5609059 C-4.11764706e-06,21.8298294 0.135178235,22.0668412 0.334554706,22.2171353 C0.472388824,22.3210647 4.07904,24.1215471 4.07904,24.1215471 C4.07904,24.1215471 0.427308824,26.1590412 0.283084118,26.2833118 C0.107828824,26.4343471 -4.11764706e-06,26.6643588 -4.11764706e-06,26.9138471 C-4.11764706e-06,27.3686824 0.368702353,27.7373765 0.823525294,27.7373765 C0.938255294,27.7373765 1.04691176,27.7155529 1.14521647,27.6730176 C1.30785941,27.6027294 4.94117235,25.5241412 4.94117235,25.5241412 L4.94117235,29.7962 C4.93240176,30.2031882 5.26996647,30.5881471 5.67462824,30.6325765 C6.13909471,30.6837588 6.59827824,30.2633471 6.58823118,29.7962 L6.58823118,24.5976706 L15.2352982,19.6822294 L15.2352982,29.7575765 L11.0919076,32.3954647 C10.7860653,32.5775471 10.6263129,32.9781941 10.7187459,33.3219353 C10.8111788,33.6656765 11.1477553,33.9225765 11.5036724,33.9266941 C11.6675547,33.9270235 11.83119,33.8770353 11.9669076,33.7851706 L15.2352982,31.7134588 L15.2352982,35.5609059 C15.2352982,36.0157412 15.6039924,36.3844353 16.0588276,36.3844353 C16.5136629,36.3844353 16.8823571,36.0157412 16.8823571,35.5609059 L16.8823571,31.7134588 L20.1507394,33.7851706 C20.2864571,33.8770353 20.4500924,33.9270235 20.6139747,33.9266941 C20.9699041,33.9225765 21.3064806,33.6656765 21.3988806,33.3219353 C21.4913218,32.9781941 21.3315571,32.5775471 21.0257394,32.3954647 L16.8823571,29.7575765 L16.8823571,19.6822294 L25.5294159,24.5976706 L25.5294159,29.7962 C25.5195335,30.2633471 25.9785276,30.6837588 26.4429982,30.6325765 C26.8476806,30.5881059 27.1851218,30.2031882 27.1764747,29.7962 L27.1764747,25.5241412 C27.1764747,25.5241412 30.8097629,27.6027294 30.97241,27.6730176 C31.0707394,27.7155529 31.1794041,27.7373765 31.2941218,27.7373765 C31.7489159,27.7373765 32.1176512,27.3686824 32.1176512,26.9138471 C32.1176512,26.6643588 32.00981,26.4343471 31.8345629,26.2833118 C31.6903218,26.1590412 28.0385865,24.1215471 28.0385865,24.1215471 C28.0385865,24.1215471 31.6452335,22.3210647 31.7830924,22.2171353 C31.9824688,22.0668412 32.1176512,21.8298294 32.1176512,21.5609059 C32.1176512,21.1060706 31.7489159,20.7373765 31.2941218,20.7373765 C31.1576629,20.7373765 31.0331041,20.7686706 30.9209394,20.8274294 C30.7827924,20.8999824 26.3014747,23.1307588 26.3014747,23.1307588 L17.7316218,18.2667882 L26.3014747,13.4028135 C26.3014747,13.4028135 30.7827924,15.6335776 30.9209394,15.7061224 C31.0331041,15.7650253 31.1576629,15.7961959 31.2941218,15.7961959 C31.7489159,15.7961959 32.1176512,15.4274894 32.1176512,14.9726665 C32.1176512,14.7037512 31.9824688,14.4667147 31.7830924,14.3164165 C31.6452335,14.2125118 28.0385865,12.4120047 28.0385865,12.4120047 C28.0385865,12.4120047 31.6903218,10.3745229 31.8345629,10.25024 C32.00981,10.0992171 32.1176512,9.86922588 32.1176512,9.61972529 C32.1176512,9.16490235 31.7489159,8.79619588 31.2941218,8.79619588 C31.1794041,8.79619588 31.0707394,8.81801941 30.97241,8.86053412 C30.8097629,8.93085941 27.1764747,11.0094312 27.1764747,11.0094312 L27.1764747,6.73737235 C27.1851218,6.33036765 26.8476806,5.94544588 26.4429982,5.90097529 C25.9785276,5.84980941 25.5193276,6.27020471 25.5294159,6.73737235 L25.5294159,11.9359018 L16.8823571,16.8513429 L16.8823571,6.77597529 L21.0257394,4.13810765 C21.3315571,3.95602941 21.4913218,3.55536588 21.3988806,3.21163706 C21.3064806,2.86790824 20.9699041,2.61097529 20.6139747,2.60685765 C20.4500924,2.60654471 20.2864571,2.65654118 20.1507394,2.74840176 L16.8823571,4.82009294 L16.8823571,0.972666471 C16.8823571,0.517843529 16.5136629,0.149137059 16.0588276,0.149137059 Z" transform="translate(18.941 16.733)" stroke="none" class="secondary-fill"></path>
  </g></g></g><style>
          .main-fill {fill: #313A3D;}
          .main-stroke {stroke: #313A3D;}
          .secondary-fill {fill: #29AB87;}
          .secondary-stroke {stroke: #29AB87;}

          .main-fill--darken {fill: #0f1213;}
          .main-stroke--darken {stroke: #0f1213;}
          .secondary-fill--darken {fill: #1a6d56;}
          .secondary-stroke--darken {stroke: #1a6d56;}

          .main-fill--darkener {fill: #000000;}
          .main-stroke--darkener {stroke: #000000;}
          .secondary-fill--darkener {fill: #104436;}
          .secondary-stroke--darkener {stroke: #104436;}
        </style></svg>