<svg xmlns="http://www.w3.org/2000/svg" width="70" height="70" viewBox="0 0 70 70" style="width: 100%; height: 100%;"><desc>Made with illustrio</desc>
  
<g class="content"><circle cx="50%" cy="50%" r="27px" class="main-fill"></circle><g class="base"><g fill="none" fill-rule="evenodd" stroke="none" class="secondary-fill">
    
    
  </g><g fill="none" transform="translate(17.818 17.818)" stroke="none" class="secondary-fill">
      <rect width="29.273" height="16.349" x="2.545" y="2.545" fill="none" stroke="none" class="secondary-fill"></rect>
      <path d="M0,0 L0,34.3636364 L34.3636364,34.3636364 L34.3636364,0 L0,0 L0,0 Z M4.55254545,33.0909091 C4.20127273,33.0909091 3.91618182,32.8064545 3.91618182,32.4545455 C3.91618182,31.0545455 3.08254545,29.7964545 1.79327273,29.2510909 C1.46936364,29.1142727 1.31790909,28.7407273 1.45536364,28.4168182 C1.59218182,28.0922727 1.967,27.9427273 2.28963636,28.0789091 C4.05172727,28.8247273 5.18954545,30.5416364 5.18954545,32.4545455 C5.18890909,32.8064545 4.90381818,33.0909091 4.55254545,33.0909091 L4.55254545,33.0909091 Z M2.54545455,26.5809091 C2.54545455,26.9328182 2.26036364,27.2172727 1.90909091,27.2172727 C1.55781818,27.2172727 1.27272727,26.9328182 1.27272727,26.5809091 C1.27272727,23.9629091 3.40263636,21.8323636 6.02063636,21.8323636 C8.63863636,21.8323636 10.7685455,23.9629091 10.7685455,26.5809091 C10.7685455,26.9328182 10.4834545,27.2172727 10.1321818,27.2172727 C9.78090909,27.2172727 9.49581818,26.9328182 9.49581818,26.5809091 C9.49581818,24.6641818 7.93672727,23.1050909 6.02063636,23.1050909 C4.10454545,23.1050909 2.54545455,24.6641818 2.54545455,26.5809091 L2.54545455,26.5809091 Z M15.7130909,33.0909091 C15.3618182,33.0909091 15.0767273,32.8064545 15.0767273,32.4545455 C15.0767273,30.5378182 13.5176364,28.9787273 11.6015455,28.9787273 C9.68481818,28.9787273 8.12572727,30.5378182 8.12572727,32.4545455 C8.12572727,32.8064545 7.84063636,33.0909091 7.48936364,33.0909091 C7.13809091,33.0909091 6.853,32.8064545 6.853,32.4545455 C6.853,29.8365455 8.98290909,27.706 11.6015455,27.706 C14.2195455,27.706 16.3494545,29.8365455 16.3494545,32.4545455 C16.3494545,32.8064545 16.065,33.0909091 15.7130909,33.0909091 L15.7130909,33.0909091 Z M13.7066364,26.5809091 C13.7066364,26.9328182 13.4215455,27.2172727 13.0702727,27.2172727 C12.719,27.2172727 12.4339091,26.9328182 12.4339091,26.5809091 C12.4339091,23.9629091 14.5638182,21.8323636 17.1818182,21.8323636 C19.7998182,21.8323636 21.9303636,23.9629091 21.9303636,26.5809091 C21.9303636,26.9328182 21.6459091,27.2172727 21.294,27.2172727 C20.9420909,27.2172727 20.6576364,26.9328182 20.6576364,26.5809091 C20.6576364,24.6641818 19.0985455,23.1050909 17.1818182,23.1050909 C15.2657273,23.1050909 13.7066364,24.6641818 13.7066364,26.5809091 L13.7066364,26.5809091 Z M26.8736364,33.0909091 C26.5217273,33.0909091 26.2372727,32.8064545 26.2372727,32.4545455 C26.2372727,30.5378182 24.6781818,28.9787273 22.7620909,28.9787273 C20.8453636,28.9787273 19.2862727,30.5378182 19.2862727,32.4545455 C19.2862727,32.8064545 19.0018182,33.0909091 18.6499091,33.0909091 C18.298,33.0909091 18.0135455,32.8064545 18.0135455,32.4545455 C18.0135455,29.8365455 20.1440909,27.706 22.7620909,27.706 C25.3800909,27.706 27.51,29.8365455 27.51,32.4545455 C27.51,32.8064545 27.2255455,33.0909091 26.8736364,33.0909091 L26.8736364,33.0909091 Z M32.571,29.2517273 C31.2804545,29.7970909 30.4474545,31.0545455 30.4474545,32.4545455 C30.4474545,32.8064545 30.163,33.0909091 29.8110909,33.0909091 C29.4591818,33.0909091 29.1747273,32.8064545 29.1747273,32.4545455 C29.1747273,30.5422727 30.3131818,28.8253636 32.0752727,28.0795455 C32.3966364,27.9427273 32.7720909,28.0929091 32.9095455,28.4174545 C33.0457273,28.7413636 32.8942727,29.1149091 32.571,29.2517273 L32.571,29.2517273 Z M32.4545455,27.2172727 C32.1026364,27.2172727 31.8181818,26.9328182 31.8181818,26.5809091 C31.8181818,24.6641818 30.2590909,23.1050909 28.3423636,23.1050909 C26.4262727,23.1050909 24.8671818,24.6641818 24.8671818,26.5809091 C24.8671818,26.9328182 24.5827273,27.2172727 24.2308182,27.2172727 C23.8789091,27.2172727 23.5944545,26.9328182 23.5944545,26.5809091 C23.5944545,23.9629091 25.7243636,21.8323636 28.3423636,21.8323636 C30.9603636,21.8323636 33.0909091,23.9622727 33.0909091,26.5809091 C33.0909091,26.9321818 32.8064545,27.2172727 32.4545455,27.2172727 L32.4545455,27.2172727 Z M33.0909091,19.5312727 C33.0909091,19.8831818 32.8064545,20.1676364 32.4545455,20.1676364 L1.90909091,20.1676364 C1.55781818,20.1676364 1.27272727,19.8831818 1.27272727,19.5312727 L1.27272727,1.90909091 C1.27272727,1.55781818 1.55781818,1.27272727 1.90909091,1.27272727 L32.4545455,1.27272727 C32.8064545,1.27272727 33.0909091,1.55781818 33.0909091,1.90909091 L33.0909091,19.5312727 L33.0909091,19.5312727 Z" fill="none" stroke="none" class="secondary-fill"></path>
    </g></g></g><style>
          .main-fill {fill: #313A3D;}
          .main-stroke {stroke: #313A3D;}
          .secondary-fill {fill: #29AB87;}
          .secondary-stroke {stroke: #29AB87;}

          .main-fill--darken {fill: #0f1213;}
          .main-stroke--darken {stroke: #0f1213;}
          .secondary-fill--darken {fill: #1a6d56;}
          .secondary-stroke--darken {stroke: #1a6d56;}

          .main-fill--darkener {fill: #000000;}
          .main-stroke--darkener {stroke: #000000;}
          .secondary-fill--darkener {fill: #104436;}
          .secondary-stroke--darkener {stroke: #104436;}
        </style></svg>