<svg xmlns="http://www.w3.org/2000/svg" width="70" height="70" viewBox="0 0 70 70" style="width: 100%; height: 100%;"><desc>Made with illustrio</desc>
  
<g class="content"><circle cx="50%" cy="50%" r="27px" class="main-fill"></circle><g class="base"><g fill="none" fill-rule="evenodd" stroke="none" class="secondary-fill">
    
    <path fill="none" d="M29.3500667,0.440066667 C29.2063333,0.0807333333 28.7994,-0.0933333333 28.4405333,0.0504 L23.6898667,1.9502 C22.8862667,2.27173333 22.1134667,3.1458 21.8927333,3.98346667 L21.0989333,7 L15.3645333,7 C15.0094,3.0814 11.7096,1.03622623e-16 7.7,1.03622623e-16 C3.45426667,1.03622623e-16 0,3.45426667 0,7.7 C0,11.1608 2.26986667,14.1255333 5.51086667,15.078 L4.90933333,18.0852 C4.75393333,18.8626667 4.88086667,19.9943333 5.20473333,20.7172 C5.37786667,21.1040667 9.36366667,29.8522 15.1671333,30.5218667 L15.1671333,39.6666667 L8.86666667,39.6666667 C8.4798,39.6666667 8.16666667,39.9802667 8.16666667,40.3666667 C8.16666667,40.7530667 8.4798,41.0666667 8.86666667,41.0666667 L22.8666667,41.0666667 C23.2530667,41.0666667 23.5666667,40.7530667 23.5666667,40.3666667 C23.5666667,39.9802667 23.2530667,39.6666667 22.8666667,39.6666667 L16.5666667,39.6666667 L16.5666667,30.5218667 C22.3706,29.8522 26.3559333,21.1040667 26.5290667,20.7172 C26.8524667,19.9938667 26.9798667,18.8622 26.8244667,18.0847333 L24.9484667,8.7066 C24.7571333,7.74946667 23.8429333,7 22.8666667,7 L22.5460667,7 L23.2460667,4.34 C23.3529333,3.93493333 23.821,3.40526667 24.2092667,3.24986667 L28.9594667,1.35006667 C29.3188,1.20633333 29.4933333,0.798933333 29.3500667,0.440066667 L29.3500667,0.440066667 Z M1.4,7.7 C1.4,4.22613333 4.22613333,1.4 7.7,1.4 C10.9372667,1.4 13.6089333,3.85466667 13.9589333,7 L8.86666667,7 C7.8904,7 6.9762,7.74946667 6.78486667,8.7066 L5.7862,13.699 C3.2004,12.8823333 1.4,10.4883333 1.4,7.7 L1.4,7.7 Z M12.4833333,22.8666667 C11.8388667,22.8666667 11.3166667,22.3444667 11.3166667,21.7 C11.3166667,21.0555333 11.8388667,20.5333333 12.4833333,20.5333333 C13.1278,20.5333333 13.65,21.0555333 13.65,21.7 C13.65,22.3444667 13.1278,22.8666667 12.4833333,22.8666667 L12.4833333,22.8666667 Z M14.2333333,26.3666667 C13.9113333,26.3666667 13.65,26.1053333 13.65,25.7833333 C13.65,25.4613333 13.9113333,25.2 14.2333333,25.2 C14.5553333,25.2 14.8166667,25.4613333 14.8166667,25.7833333 C14.8166667,26.1053333 14.5553333,26.3666667 14.2333333,26.3666667 L14.2333333,26.3666667 Z M6.68733333,16.3333333 L8.1578,8.98146667 C8.21846667,8.6772 8.55633333,8.4 8.86666667,8.4 L20.7307333,8.4 L18.6428667,16.3333333 L6.68733333,16.3333333 L6.68733333,16.3333333 Z M20.65,24.0333333 C20.0055333,24.0333333 19.4833333,23.5111333 19.4833333,22.8666667 C19.4833333,22.2222 20.0055333,21.7 20.65,21.7 C21.2944667,21.7 21.8166667,22.2222 21.8166667,22.8666667 C21.8166667,23.5111333 21.2944667,24.0333333 20.65,24.0333333 L20.65,24.0333333 Z M22.8666667,8.4 C23.177,8.4 23.5148667,8.6772 23.576,8.98146667 L25.0464667,16.3333333 L20.0904667,16.3333333 L22.1783333,8.4 L22.8666667,8.4 L22.8666667,8.4 Z" transform="translate(20.067 14.467)" stroke="none" class="secondary-fill"></path>
  </g></g></g><style>
          .main-fill {fill: #313A3D;}
          .main-stroke {stroke: #313A3D;}
          .secondary-fill {fill: #29AB87;}
          .secondary-stroke {stroke: #29AB87;}

          .main-fill--darken {fill: #0f1213;}
          .main-stroke--darken {stroke: #0f1213;}
          .secondary-fill--darken {fill: #1a6d56;}
          .secondary-stroke--darken {stroke: #1a6d56;}

          .main-fill--darkener {fill: #000000;}
          .main-stroke--darkener {stroke: #000000;}
          .secondary-fill--darkener {fill: #104436;}
          .secondary-stroke--darkener {stroke: #104436;}
        </style></svg>