<svg xmlns="http://www.w3.org/2000/svg" width="70" height="70" viewBox="0 0 70 70" style="width: 100%; height: 100%;"><desc>Made with illustrio</desc>
  
<g class="content"><circle cx="50%" cy="50%" r="27px" class="main-fill"></circle><g class="base"><g fill="none" fill-rule="evenodd" stroke="none" class="secondary-fill">
    
    
  </g><g fill="none" transform="translate(19.09 22.273)" stroke="none" class="secondary-fill">
      <path d="M5.72663636,19.7272727 C5.63118182,19.7272727 5.53381818,19.7062727 5.44281818,19.6604545 C5.12845455,19.5032727 5.00118182,19.1208182 5.15836364,18.8064545 L7.70063636,13.7219091 C7.084,13.4940909 6.42154545,13.3636364 5.72727273,13.3636364 C2.56963636,13.3636364 0,15.9326364 0,19.0909091 C0,22.2491818 2.56963636,24.8181818 5.72727273,24.8181818 C8.88490909,24.8181818 11.4545455,22.2491818 11.4545455,19.0909091 C11.4545455,17.0806364 10.4109091,15.3121818 8.83972727,14.2895455 L6.29681818,19.3753636 C6.18481818,19.5987273 5.96018182,19.7272727 5.72663636,19.7272727 L5.72663636,19.7272727 Z" fill="none" stroke="none" class="secondary-fill"></path>
      <path d="M26.0909091,13.3636364 C25.9591818,13.3636364 25.8293636,13.3750909 25.6995455,13.3833636 L26.7177273,18.977 C26.7813636,19.3225455 26.551,19.6534545 26.2054545,19.7170909 C26.1666364,19.7234545 26.1284545,19.7272727 26.0909091,19.7272727 C25.7886364,19.7272727 25.5207273,19.5121818 25.466,19.2048182 L24.4478182,13.6067273 C24.8480909,13.4870909 25.2680909,13.4126364 25.6995455,13.3833636 L24.2416364,5.36390909 L29.0181818,1.78181818 C29.2994545,1.57118182 29.3567273,1.17218182 29.1454545,0.890909091 C28.9348182,0.609636364 28.5358182,0.551727273 28.2551818,0.763636364 L23.1642727,4.58181818 C23.1400909,4.60027273 23.1267273,4.62636364 23.1057273,4.64736364 C23.072,4.68109091 23.0376364,4.71227273 23.0121818,4.75236364 C22.9905455,4.78736364 22.9790909,4.82490909 22.9644545,4.86245455 C22.9498182,4.90063636 22.932,4.93627273 22.925,4.977 C22.9160909,5.02409091 22.9199091,5.06990909 22.9224545,5.11763636 C22.9237273,5.14690909 22.9148182,5.17490909 22.9205455,5.20481818 L23.478,8.27272727 L11.277,8.27272727 L10.4287273,5.72727273 L12.0909091,5.72727273 C12.4421818,5.72727273 12.7272727,5.44218182 12.7272727,5.09090909 C12.7272727,4.73963636 12.4421818,4.45454545 12.0909091,4.45454545 L7,4.45454545 C6.64872727,4.45454545 6.36363636,4.73963636 6.36363636,5.09090909 C6.36363636,5.44218182 6.64872727,5.72727273 7,5.72727273 L9.08663636,5.72727273 L10.1309091,8.86009091 L7.7,13.7212727 C8.10281818,13.8689091 8.48463636,14.0585455 8.83909091,14.2895455 L11.2114545,9.54545455 L23.5454545,9.54545455 C23.6014545,9.54545455 23.6517273,9.527 23.7032727,9.51363636 L24.4471818,13.6067273 C22.0881818,14.315 20.3636364,16.5047273 20.3636364,19.0909091 C20.3636364,22.2491818 22.9326364,24.8181818 26.0909091,24.8181818 C29.2491818,24.8181818 31.8181818,22.2491818 31.8181818,19.0909091 C31.8181818,15.9326364 29.2491818,13.3636364 26.0909091,13.3636364 L26.0909091,13.3636364 Z" fill="none" stroke="none" class="secondary-fill"></path>
    </g></g></g><style>
          .main-fill {fill: #313A3D;}
          .main-stroke {stroke: #313A3D;}
          .secondary-fill {fill: #29AB87;}
          .secondary-stroke {stroke: #29AB87;}

          .main-fill--darken {fill: #0f1213;}
          .main-stroke--darken {stroke: #0f1213;}
          .secondary-fill--darken {fill: #1a6d56;}
          .secondary-stroke--darken {stroke: #1a6d56;}

          .main-fill--darkener {fill: #000000;}
          .main-stroke--darkener {stroke: #000000;}
          .secondary-fill--darkener {fill: #104436;}
          .secondary-stroke--darkener {stroke: #104436;}
        </style></svg>