<svg xmlns="http://www.w3.org/2000/svg" width="70" height="70" viewBox="0 0 70 70" style="width: 100%; height: 100%;"><desc>Made with illustrio</desc>
  
<g class="content"><circle cx="50%" cy="50%" r="27px" class="main-fill"></circle><g class="base"><g fill="none" fill-rule="evenodd" stroke="none" class="secondary-fill">
    
    <path fill="none" d="M31.1818182,2.54545455 L16.5454545,2.54545455 L16.5454545,0.636363636 C16.5454545,0.285090909 16.2603636,0 15.9090909,0 C15.5578182,0 15.2727273,0.285090909 15.2727273,0.636363636 L15.2727273,2.54545455 L0.636363636,2.54545455 C0.285090909,2.54545455 0,2.83054545 0,3.18181818 L0,26.0909091 C0,26.4428182 0.285090909,26.7272727 0.636363636,26.7272727 L12.4803636,26.7272727 L10.2142727,33.5261818 C10.1029091,33.8596364 10.283,34.2204545 10.6164545,34.3311818 C10.6839091,34.3528182 10.752,34.3636364 10.8181818,34.3636364 C11.0848182,34.3636364 11.333,34.195 11.4220909,33.9283636 L12.5497273,30.5454545 L19.2690909,30.5454545 L20.3967273,33.9283636 C20.4851818,34.195 20.7333636,34.3636364 21,34.3636364 C21.0661818,34.3636364 21.1342727,34.3528182 21.2010909,34.3305455 C21.5339091,34.2198182 21.7146364,33.8596364 21.6032727,33.5255455 L19.3371818,26.7272727 L31.1818182,26.7272727 C31.5337273,26.7272727 31.8181818,26.4428182 31.8181818,26.0909091 L31.8181818,3.18181818 C31.8181818,2.83054545 31.5337273,2.54545455 31.1818182,2.54545455 L31.1818182,2.54545455 Z M18.8446364,29.2727273 L12.9735455,29.2727273 L13.8218182,26.7272727 L17.9957273,26.7272727 L18.8446364,29.2727273 L18.8446364,29.2727273 Z" transform="translate(19.09 17.818)" stroke="none" class="secondary-fill"></path>
  </g></g></g><style>
          .main-fill {fill: #313A3D;}
          .main-stroke {stroke: #313A3D;}
          .secondary-fill {fill: #29AB87;}
          .secondary-stroke {stroke: #29AB87;}

          .main-fill--darken {fill: #0f1213;}
          .main-stroke--darken {stroke: #0f1213;}
          .secondary-fill--darken {fill: #1a6d56;}
          .secondary-stroke--darken {stroke: #1a6d56;}

          .main-fill--darkener {fill: #000000;}
          .main-stroke--darkener {stroke: #000000;}
          .secondary-fill--darkener {fill: #104436;}
          .secondary-stroke--darkener {stroke: #104436;}
        </style></svg>