<svg xmlns="http://www.w3.org/2000/svg" width="70" height="70" viewBox="0 0 70 70" style="width: 100%; height: 100%;"><desc>Made with illustrio</desc>
  
<g class="content"><circle cx="50%" cy="50%" r="27px" class="main-fill"></circle><g class="base"><g fill="none" fill-rule="evenodd" stroke="none" class="secondary-fill">
    
    <path fill="none" d="M39.6666667,38.9666667 L35.0667333,38.9666667 C35.0065333,35.2944667 34.7461333,17.9036667 35.077,11.704 C35.2748667,7.9968 33.1473333,4.9728 28.9254,2.95913333 C21.6995333,-0.486733333 9.76966667,-0.266 7.46433333,1.81346667 C5.75913333,3.35206667 6.52586667,8.0654 7.30566667,9.6432 C8.6548,12.3718 15.757,14.0942667 17.9666667,14.5698 L17.9666667,23.0771333 C15.2063333,22.0892 5.01946667,18.6704 2.33333333,21 C0.868466667,22.2707333 1.83773333,26.2612 2.20733333,27.5744 C0.8512,28.8507333 0,30.6576667 0,32.6666667 C0,36.5320667 3.13413333,39.6666667 7,39.6666667 C9.0706,39.6666667 10.9251333,38.7622667 12.2070667,37.3333333 L28,37.3333333 C28.189,35.1348667 23.996,26.7386 23.3333333,25.6666667 C22.8284,24.8495333 20.5398667,23.9717333 19.3666667,23.5652667 L19.3666667,13.4241333 L18.8015333,13.3130667 C15.3244,12.6303333 9.4696,10.8616667 8.561,9.023 C7.82926667,7.54273333 7.48206667,3.6834 8.40233333,2.85273333 C9.96333333,1.44433333 21.273,0.860533333 28.3229333,4.2224 C32.0446,5.9976 33.8468667,8.4896 33.6793333,11.6288667 C33.3470667,17.8598 33.6060667,35.2347333 33.6667333,38.9662 L30.3333333,38.9662 C29.9469333,38.9662 29.6333333,39.2798 29.6333333,39.6662 C29.6333333,40.0526 29.9469333,40.3662 30.3333333,40.3662 L34.3774667,40.3662 L34.3900667,40.3662 L39.6666667,40.3662 C40.0530667,40.3662 40.3666667,40.0526 40.3666667,39.6662 C40.3666667,39.2798 40.0530667,38.9666667 39.6666667,38.9666667 L39.6666667,38.9666667 Z M18.6666667,33.3666667 L11.6666667,33.3666667 C11.2798,33.3666667 10.9666667,33.0530667 10.9666667,32.6666667 C10.9666667,32.2802667 11.2798,31.9666667 11.6666667,31.9666667 L18.6666667,31.9666667 C19.0535333,31.9666667 19.3666667,32.2802667 19.3666667,32.6666667 C19.3666667,33.0530667 19.0535333,33.3666667 18.6666667,33.3666667 L18.6666667,33.3666667 Z M18.6666667,31.0333333 L11.6666667,31.0333333 C11.2798,31.0333333 10.9666667,30.7197333 10.9666667,30.3333333 C10.9666667,29.9469333 11.2798,29.6333333 11.6666667,29.6333333 L18.6666667,29.6333333 C19.0535333,29.6333333 19.3666667,29.9469333 19.3666667,30.3333333 C19.3666667,30.7197333 19.0535333,31.0333333 18.6666667,31.0333333 L18.6666667,31.0333333 Z M18.6666667,28.7 L11.6666667,28.7 C11.2798,28.7 10.9666667,28.3864 10.9666667,28 C10.9666667,27.6136 11.2798,27.3 11.6666667,27.3 L18.6666667,27.3 C19.0535333,27.3 19.3666667,27.6136 19.3666667,28 C19.3666667,28.3864 19.0535333,28.7 18.6666667,28.7 L18.6666667,28.7 Z" transform="translate(14.467 14.467)" stroke="none" class="secondary-fill"></path>
  </g></g></g><style>
          .main-fill {fill: #313A3D;}
          .main-stroke {stroke: #313A3D;}
          .secondary-fill {fill: #29AB87;}
          .secondary-stroke {stroke: #29AB87;}

          .main-fill--darken {fill: #0f1213;}
          .main-stroke--darken {stroke: #0f1213;}
          .secondary-fill--darken {fill: #1a6d56;}
          .secondary-stroke--darken {stroke: #1a6d56;}

          .main-fill--darkener {fill: #000000;}
          .main-stroke--darkener {stroke: #000000;}
          .secondary-fill--darkener {fill: #104436;}
          .secondary-stroke--darkener {stroke: #104436;}
        </style></svg>