<svg xmlns="http://www.w3.org/2000/svg" width="70" height="70" viewBox="0 0 70 70" style="width: 100%; height: 100%;"><desc>Made with illustrio</desc>
  
<g class="content"><circle cx="50%" cy="50%" r="27px" class="main-fill"></circle><g class="base"><g fill="none" fill-rule="evenodd" stroke="none" class="secondary-fill">
    
    <path fill="none" d="M15.2727273,9.55181818 L15.2727273,1.27272727 L18.4545455,1.27272727 C18.8064545,1.27272727 19.0909091,0.987636364 19.0909091,0.636363636 C19.0909091,0.285090909 18.8064545,0 18.4545455,0 L0.636363636,0 C0.285090909,0 0,0.285090909 0,0.636363636 C0,0.987636364 0.285090909,1.27272727 0.636363636,1.27272727 L3.81818182,1.27272727 L3.81818182,9.55181818 C1.421,11.3533636 0,14.1807273 0,17.1818182 C0,17.5337273 0.285090909,17.8181818 0.636363636,17.8181818 L8.90909091,17.8181818 L8.90909091,31.1818182 C8.90909091,31.5337273 9.19418182,31.8181818 9.54545455,31.8181818 C9.89672727,31.8181818 10.1818182,31.5337273 10.1818182,31.1818182 L10.1818182,17.8181818 L18.4545455,17.8181818 C18.8064545,17.8181818 19.0909091,17.5337273 19.0909091,17.1818182 C19.0909091,14.1807273 17.6699091,11.3533636 15.2727273,9.55181818 L15.2727273,9.55181818 Z" transform="translate(25.455 19.09)" stroke="none" class="secondary-fill"></path>
  </g></g></g><style>
          .main-fill {fill: #313A3D;}
          .main-stroke {stroke: #313A3D;}
          .secondary-fill {fill: #29AB87;}
          .secondary-stroke {stroke: #29AB87;}

          .main-fill--darken {fill: #0f1213;}
          .main-stroke--darken {stroke: #0f1213;}
          .secondary-fill--darken {fill: #1a6d56;}
          .secondary-stroke--darken {stroke: #1a6d56;}

          .main-fill--darkener {fill: #000000;}
          .main-stroke--darkener {stroke: #000000;}
          .secondary-fill--darkener {fill: #104436;}
          .secondary-stroke--darkener {stroke: #104436;}
        </style></svg>