<svg xmlns="http://www.w3.org/2000/svg" width="70" height="70" viewBox="0 0 70 70" style="width: 100%; height: 100%;"><desc>Made with illustrio</desc>
  
<g class="content"><circle cx="50%" cy="50%" r="27px" class="main-fill"></circle><g class="base"><g fill="none" fill-rule="evenodd" stroke="none" class="secondary-fill">
    
    <path fill="none" d="M1.4,19 C1.4,19.4 1.6,19.8 2.1,19.8 C2.5,19.8 2.8,19.4 2.8,19 L2.8,4.5 L13.7,4.5 L13.7,8.6 L20.5,8.6 L20.5,6.4 C20.5,6 20.7,5.6 21.2,5.6 C21.6,5.6 21.9,6 21.9,6.4 L21.9,8.6 L26.9,8.6 C27.3,8.6 27.7,8.8 27.7,9.3 C27.7,9.7 27.3,10 26.9,10 L13.6,10 L13.6,14.9 C13.6,15.3 13.9,15.4 14.4,15.4 L20.5,15.4 L20.5,12.7 C20.5,12.3 20.7,11.9 21.2,11.9 C21.6,11.9 21.9,12.3 21.9,12.7 L21.9,15.4 L27.4,15.4 L27.4,19 C27.4,19.4 27.6,19.8 28.1,19.8 C28.5,19.8 28.8,19.4 28.8,19 L28.8,13.5 L28.8,4.5 L29.4,4.5 C29.8,4.5 30.2,4.5 30.2,4 L30.2,0.9 C30.2,0.5 29.8,0.4 29.4,0.4 L0.8,0.4 C0.4,0.4 0,0.4 0,0.9 L0,4 C0,4.4 0.4,4.5 0.8,4.5 L1.4,4.5 L1.4,19 L1.4,19 Z" transform="translate(19 25)" stroke="none" class="secondary-fill"></path>
  </g></g></g><style>
          .main-fill {fill: #313A3D;}
          .main-stroke {stroke: #313A3D;}
          .secondary-fill {fill: #29AB87;}
          .secondary-stroke {stroke: #29AB87;}

          .main-fill--darken {fill: #0f1213;}
          .main-stroke--darken {stroke: #0f1213;}
          .secondary-fill--darken {fill: #1a6d56;}
          .secondary-stroke--darken {stroke: #1a6d56;}

          .main-fill--darkener {fill: #000000;}
          .main-stroke--darkener {stroke: #000000;}
          .secondary-fill--darkener {fill: #104436;}
          .secondary-stroke--darkener {stroke: #104436;}
        </style></svg>