<svg xmlns="http://www.w3.org/2000/svg" width="70" height="70" viewBox="0 0 70 70" style="width: 100%; height: 100%;"><desc>Made with illustrio</desc>
  
<g class="content"><circle cx="50%" cy="50%" r="27px" class="main-fill"></circle><g class="base"><g fill="none" fill-rule="evenodd" stroke="none" class="secondary-fill">
    
    
    <path fill="none" d="M17.2941176,0.149132941 C15.2474165,0.149132941 13.5882353,1.80831412 13.5882353,3.85501529 C13.5882353,5.90171647 15.2474165,7.56089765 17.2941176,7.56089765 C19.3408188,7.56089765 21,5.90171647 21,3.85501529 C21,1.80831412 19.3408188,0.149132941 17.2941176,0.149132941 Z M5.76470588,3.85501529 C3.94541412,3.85501529 2.47058824,5.32984118 2.47058824,7.14913294 C2.47058824,8.96842059 3.94541412,10.4432506 5.76470588,10.4432506 C7.58399765,10.4432506 9.05882353,8.96842059 9.05882353,7.14913294 C9.05882353,5.32984118 7.58399765,3.85501529 5.76470588,3.85501529 Z M28.8235294,3.85501529 C27.0042376,3.85501529 25.5294118,5.32984118 25.5294118,7.14913294 C25.5294118,8.96842059 27.0042376,10.4432506 28.8235294,10.4432506 C30.6428212,10.4432506 32.1176471,8.96842059 32.1176471,7.14913294 C32.1176471,5.32984118 30.6428212,3.85501529 28.8235294,3.85501529 Z M11.7996324,10.8550153 C10.7538241,10.8550153 10.2941176,11.5474182 10.2941176,12.5664124 L14.2959559,34.7373682 L20.2922794,34.7373682 L24.2941176,12.5664124 C24.2941176,11.5474182 23.8344112,10.8550153 22.7886029,10.8550153 L11.7996324,10.8550153 Z M1.23529412,14.1491329 C0.374038824,14.1491329 0,14.6465076 0,15.3844271 L3.29411765,31.4432506 L8.23529412,31.4432506 L10.2555147,21.5995006 L8.90441176,14.1491329 L1.23529412,14.1491329 Z M25.6838235,14.1491329 L24.3327206,21.5995006 L26.3529412,31.4432506 L31.2941176,31.4432506 L34.5882353,15.3844271 C34.5882353,14.6465076 34.2141965,14.1491329 33.3529412,14.1491329 L25.6838235,14.1491329 Z" transform="translate(17.706 17.557)" stroke="none" class="secondary-fill"></path>
  </g></g></g><style>
          .main-fill {fill: #313A3D;}
          .main-stroke {stroke: #313A3D;}
          .secondary-fill {fill: #29AB87;}
          .secondary-stroke {stroke: #29AB87;}

          .main-fill--darken {fill: #0f1213;}
          .main-stroke--darken {stroke: #0f1213;}
          .secondary-fill--darken {fill: #1a6d56;}
          .secondary-stroke--darken {stroke: #1a6d56;}

          .main-fill--darkener {fill: #000000;}
          .main-stroke--darkener {stroke: #000000;}
          .secondary-fill--darkener {fill: #104436;}
          .secondary-stroke--darkener {stroke: #104436;}
        </style></svg>