<svg xmlns="http://www.w3.org/2000/svg" width="70" height="70" viewBox="0 0 70 70" style="width: 100%; height: 100%;"><desc>Made with illustrio</desc>
  
<g class="content"><circle cx="50%" cy="50%" r="27px" class="main-fill"></circle><g class="base"><g fill="none" fill-rule="evenodd" stroke="none" class="secondary-fill">
    
    
  </g><g fill="none" transform="translate(21.636 17.818)" stroke="none" class="secondary-fill">
      <path d="M26.0909091,16.5454545 L20.3375455,16.5454545 C20.0747273,12.6591818 17.3994545,10.1818182 13.3636364,10.1818182 C9.32845455,10.1818182 6.65254545,12.6591818 6.38972727,16.5454545 L4.46536364,16.5454545 C4.56463636,13.4762727 5.376,10.6870909 6.54627273,9.47609091 C6.79063636,9.22345455 6.78363636,8.82063636 6.531,8.57627273 C6.27836364,8.33254545 5.87490909,8.33890909 5.63118182,8.59154545 C4.20636364,10.0647273 3.29190909,13.0753636 3.192,16.5454545 L0.636363636,16.5454545 C0.285090909,16.5454545 0,16.8305455 0,17.1818182 C0,17.5330909 0.285090909,17.8181818 0.636363636,17.8181818 L5.09090909,17.8181818 L5.09090909,33.7272727 C5.09090909,34.0791818 5.376,34.3636364 5.72727273,34.3636364 L21,34.3636364 C21.3519091,34.3636364 21.6363636,34.0791818 21.6363636,33.7272727 L21.6363636,17.8181818 L26.0909091,17.8181818 C26.4428182,17.8181818 26.7272727,17.5330909 26.7272727,17.1818182 C26.7272727,16.8305455 26.4428182,16.5454545 26.0909091,16.5454545 L26.0909091,16.5454545 Z M13.3636364,29.2727273 C10.9072727,29.2727273 8.90909091,27.2739091 8.90909091,24.8181818 C8.90909091,22.3624545 10.9072727,20.3636364 13.3636364,20.3636364 C15.8193636,20.3636364 17.8181818,22.3624545 17.8181818,24.8181818 C17.8181818,27.2739091 15.8193636,29.2727273 13.3636364,29.2727273 L13.3636364,29.2727273 Z" fill="none" stroke="none" class="secondary-fill"></path>
      <path d="M12.7457273 24.1818182L13.9809091 24.1818182C13.9000909 22.8015455 13.5685455 21.9551818 13.363 21.6942727 13.1580909 21.9551818 12.8265455 22.8015455 12.7457273 24.1818182L12.7457273 24.1818182zM13.3636364 27.9420909C13.5691818 27.6811818 13.9007273 26.8348182 13.9815455 25.4545455L12.7463636 25.4545455C12.8265455 26.8348182 13.1580909 27.6811818 13.3636364 27.9420909L13.3636364 27.9420909zM10.2460909 24.1818182L11.4723636 24.1818182C11.5118182 23.4181818 11.6238182 22.6780909 11.8147273 22.0557273 11.0230909 22.5018182 10.4331818 23.2648182 10.2460909 24.1818182L10.2460909 24.1818182zM10.2460909 25.4545455C10.4331818 26.3715455 11.0230909 27.1345455 11.8147273 27.5806364 11.6238182 26.9582727 11.5118182 26.2181818 11.4723636 25.4545455L10.2460909 25.4545455 10.2460909 25.4545455zM14.9125455 27.5806364C15.7041818 27.1345455 16.2947273 26.3721818 16.4811818 25.4545455L15.2549091 25.4545455C15.2148182 26.2181818 15.1028182 26.9582727 14.9125455 27.5806364L14.9125455 27.5806364zM14.9125455 22.0557273C15.1034545 22.6780909 15.2154545 23.4181818 15.2549091 24.1818182L16.4811818 24.1818182C16.2940909 23.2648182 15.7041818 22.5018182 14.9125455 22.0557273L14.9125455 22.0557273zM13.3636364 8.90909091C15.8193636 8.90909091 17.8181818 6.91090909 17.8181818 4.45454545 17.8181818 1.99818182 15.8193636 0 13.3636364 0 10.9072727 0 8.90909091 1.99818182 8.90909091 4.45454545 8.90909091 6.91090909 10.9072727 8.90909091 13.3636364 8.90909091L13.3636364 8.90909091z" fill="none" stroke="none" class="secondary-fill"></path>
    </g></g></g><style>
          .main-fill {fill: #313A3D;}
          .main-stroke {stroke: #313A3D;}
          .secondary-fill {fill: #29AB87;}
          .secondary-stroke {stroke: #29AB87;}

          .main-fill--darken {fill: #0f1213;}
          .main-stroke--darken {stroke: #0f1213;}
          .secondary-fill--darken {fill: #1a6d56;}
          .secondary-stroke--darken {stroke: #1a6d56;}

          .main-fill--darkener {fill: #000000;}
          .main-stroke--darkener {stroke: #000000;}
          .secondary-fill--darkener {fill: #104436;}
          .secondary-stroke--darkener {stroke: #104436;}
        </style></svg>