<svg xmlns="http://www.w3.org/2000/svg" width="70" height="70" viewBox="0 0 70 70" style="width: 100%; height: 100%;"><desc>Made with illustrio</desc>
  
<g class="content"><circle cx="50%" cy="50%" r="27px" class="main-fill"></circle><g class="base"><g fill="none" fill-rule="evenodd" stroke="none" class="secondary-fill">
    
    
    <path fill="none" d="M11.9411765,0.149132941 L6.17647059,5.91383882 L6.17647059,18.26678 L28.4117647,18.26678 L28.4117647,0.149132941 L11.9411765,0.149132941 Z M13.8841912,5.09030941 C13.8970571,5.09000812 13.9099282,5.09000812 13.9227941,5.09030941 C13.9485153,5.08910253 13.9742789,5.08910253 14,5.09030941 L24.2941176,5.09030941 C24.5911119,5.08610917 24.8673611,5.24214789 25.017084,5.49867529 C25.1668069,5.75520269 25.1668069,6.07247496 25.017084,6.32900236 C24.8673611,6.58552976 24.5911119,6.74156847 24.2941176,6.73736824 L14,6.73736824 C13.7057813,6.75805549 13.4228755,6.62020748 13.2578504,6.37575022 C13.0928254,6.13129296 13.0707523,5.81736532 13.199946,5.55222081 C13.3291397,5.2870763 13.5899725,5.11099667 13.8841912,5.09030941 L13.8841912,5.09030941 Z M10.1783088,11.6785447 C10.1911747,11.6782434 10.2040459,11.6782434 10.2169118,11.6785447 C10.2426329,11.6773378 10.2683965,11.6773378 10.2941176,11.6785447 L24.2941176,11.6785447 C24.5911119,11.6743445 24.8673611,11.8303832 25.017084,12.0869106 C25.1668069,12.343438 25.1668069,12.6607103 25.017084,12.9172377 C24.8673611,13.1737651 24.5911119,13.3298038 24.2941176,13.3256035 L10.2941176,13.3256035 C9.83929491,13.3575833 9.44466355,13.0148013 9.41268382,12.5599785 C9.3807041,12.1051558 9.72348609,11.7105244 10.1783088,11.6785447 Z M2.05882353,12.5020741 C0.918207706,12.5020741 0,13.4202806 0,14.5608976 L0,32.6785447 C0,33.8191741 0.918207706,34.7373682 2.05882353,34.7373682 L32.5294118,34.7373682 C33.6700272,34.7373682 34.5882353,33.8191741 34.5882353,32.6785447 L34.5882353,14.5608976 C34.5882353,13.4202806 33.6700272,12.5020741 32.5294118,12.5020741 L30.0588235,12.5020741 L30.0588235,18.26678 L30.0588235,19.0903094 C30.0587781,19.5451133 29.690098,19.9137933 29.2352941,19.9138388 L28.4117647,19.9138388 L6.17647059,19.9138388 L5.35294118,19.9138388 C4.89813728,19.9137933 4.52945724,19.5451133 4.52941176,19.0903094 L4.52941176,18.26678 L4.52941176,12.5020741 L2.05882353,12.5020741 Z M11.5294118,22.7961918 C12.4390412,22.7961918 13.1764706,23.5336212 13.1764706,24.4432506 C13.1764706,25.3529212 12.4390412,26.0903094 11.5294118,26.0903094 C10.6197824,26.0903094 9.88235294,25.3529212 9.88235294,24.4432506 C9.88235294,23.5336212 10.6197824,22.7961918 11.5294118,22.7961918 Z M17.2941176,22.7961918 C18.2037471,22.7961918 18.9411765,23.5336212 18.9411765,24.4432506 C18.9411765,25.3529212 18.2037471,26.0903094 17.2941176,26.0903094 C16.3844882,26.0903094 15.6470588,25.3529212 15.6470588,24.4432506 C15.6470588,23.5336212 16.3844882,22.7961918 17.2941176,22.7961918 Z M23.0588235,22.7961918 C23.9684529,22.7961918 24.7058824,23.5336212 24.7058824,24.4432506 C24.7058824,25.3529212 23.9684529,26.0903094 23.0588235,26.0903094 C22.1491941,26.0903094 21.4117647,25.3529212 21.4117647,24.4432506 C21.4117647,23.5336212 22.1491941,22.7961918 23.0588235,22.7961918 Z M11.5294118,28.5608976 C12.4390412,28.5608976 13.1764706,29.2982859 13.1764706,30.2079565 C13.1764706,31.1175859 12.4390412,31.8550153 11.5294118,31.8550153 C10.6197824,31.8550153 9.88235294,31.1175859 9.88235294,30.2079565 C9.88235294,29.2982859 10.6197824,28.5608976 11.5294118,28.5608976 Z M17.2941176,28.5608976 C18.2037471,28.5608976 18.9411765,29.2982859 18.9411765,30.2079565 C18.9411765,31.1175859 18.2037471,31.8550153 17.2941176,31.8550153 C16.3844882,31.8550153 15.6470588,31.1175859 15.6470588,30.2079565 C15.6470588,29.2982859 16.3844882,28.5608976 17.2941176,28.5608976 Z M23.0588235,28.5608976 C23.9684529,28.5608976 24.7058824,29.2982859 24.7058824,30.2079565 C24.7058824,31.1175859 23.9684529,31.8550153 23.0588235,31.8550153 C22.1491941,31.8550153 21.4117647,31.1175859 21.4117647,30.2079565 C21.4117647,29.2982859 22.1491941,28.5608976 23.0588235,28.5608976 Z" transform="translate(17.706 17.557)" stroke="none" class="secondary-fill"></path>
  </g></g></g><style>
          .main-fill {fill: #313A3D;}
          .main-stroke {stroke: #313A3D;}
          .secondary-fill {fill: #29AB87;}
          .secondary-stroke {stroke: #29AB87;}

          .main-fill--darken {fill: #0f1213;}
          .main-stroke--darken {stroke: #0f1213;}
          .secondary-fill--darken {fill: #1a6d56;}
          .secondary-stroke--darken {stroke: #1a6d56;}

          .main-fill--darkener {fill: #000000;}
          .main-stroke--darkener {stroke: #000000;}
          .secondary-fill--darkener {fill: #104436;}
          .secondary-stroke--darkener {stroke: #104436;}
        </style></svg>