<svg xmlns="http://www.w3.org/2000/svg" width="70" height="70" viewBox="0 0 70 70" style="width: 100%; height: 100%;"><desc>Made with illustrio</desc>
  
<g class="content"><circle cx="50%" cy="50%" r="27px" class="main-fill"></circle><g class="base"><g fill="none" fill-rule="evenodd" stroke="none" class="secondary-fill">
    
    
  </g><g fill="none" transform="translate(16.882 16.882)" stroke="none" class="secondary-fill">
      <path d="M22.2352941,25.7352941 C22.5762353,25.7352941 22.8529412,26.012 22.8529412,26.3529412 L22.8529412,27.6491765 C23.338,27.4173529 23.6764706,26.9252941 23.6764706,26.3529412 C23.6764706,25.5582353 23.03,24.9117647 22.2352941,24.9117647 C21.4405882,24.9117647 20.7941176,25.5582353 20.7941176,26.3529412 C20.7941176,26.9257059 21.1325882,27.4173529 21.6176471,27.6491765 L21.6176471,26.3529412 C21.6176471,26.012 21.8943529,25.7352941 22.2352941,25.7352941 L22.2352941,25.7352941 Z" fill="none" stroke="none" class="secondary-fill"></path>
      <path d="M31.0849412,22.8138235 C31.0182353,13.8715294 28.9725882,4.56441176 25.2131765,3.25129412 L25.9172941,0.787294118 C26.0111765,0.459529412 25.8213529,0.117352941 25.4931765,0.0238823529 C25.1654118,-0.0691764706 24.8236471,0.119823529 24.7297647,0.448 L22.6709412,7.65388235 C22.5770588,7.98164706 22.7668824,8.32382353 23.0950588,8.41729412 C23.1518824,8.43335294 23.2087059,8.44117647 23.2651176,8.44117647 C23.5335882,8.44117647 23.7810588,8.26411765 23.8584706,7.99317647 L24.871,4.44994118 C27.2625294,5.44723529 29.7059412,12.4900588 29.8455294,22.3752941 C27.5400588,21.7119412 20.5149412,19.7272353 14.5830588,18.4470588 L12.3545882,11.5294118 L13.4852941,11.5294118 C14.6773529,11.5294118 15.6470588,10.5597059 15.6470588,9.36764706 C15.6470588,8.19041176 14.7012353,7.23017647 13.5297647,7.20629412 L5.14705882,6.08876471 L5.14705882,11.5294118 L7.81241176,11.5294118 L9.75141176,17.5481765 C9.29188235,17.4822941 8.85829412,17.4283529 8.45641176,17.3884118 C8.225,17.3653529 7.99070588,17.3538235 7.76011765,17.3538235 C3.55352941,17.3542353 0,21.2132941 0,25.7805882 C0,30.3561176 3.68035294,34.0813529 8.23529412,34.1682353 L8.23529412,36.2352941 L13.5882353,36.2352941 L13.5882353,34.1764706 L25.7352941,34.1764706 L25.7352941,36.2352941 L31.0882353,36.2352941 L31.0882353,34.1365294 C33.9796471,33.8091765 36.2352941,31.3513529 36.2352941,28.3730588 C36.2352941,25.5973529 32.4178235,23.4718235 31.0849412,22.8138235 L31.0849412,22.8138235 Z M24.2941176,30.8823529 C24.6350588,30.8823529 24.9117647,31.1590588 24.9117647,31.5 C24.9117647,31.8409412 24.6350588,32.1176471 24.2941176,32.1176471 L20.1764706,32.1176471 C19.8355294,32.1176471 19.5588235,31.8409412 19.5588235,31.5 C19.5588235,31.1590588 19.8355294,30.8823529 20.1764706,30.8823529 L21.6176471,30.8823529 L21.6176471,28.9544706 C20.4391765,28.6744706 19.5588235,27.6158235 19.5588235,26.3529412 C19.5588235,24.8771765 20.7595294,23.6764706 22.2352941,23.6764706 C23.7110588,23.6764706 24.9117647,24.8771765 24.9117647,26.3529412 C24.9117647,27.6158235 24.0314118,28.6748824 22.8529412,28.9544706 L22.8529412,30.8823529 L24.2941176,30.8823529 L24.2941176,30.8823529 Z" fill="none" stroke="none" class="secondary-fill"></path>
    </g></g></g><style>
          .main-fill {fill: #313A3D;}
          .main-stroke {stroke: #313A3D;}
          .secondary-fill {fill: #29AB87;}
          .secondary-stroke {stroke: #29AB87;}

          .main-fill--darken {fill: #0f1213;}
          .main-stroke--darken {stroke: #0f1213;}
          .secondary-fill--darken {fill: #1a6d56;}
          .secondary-stroke--darken {stroke: #1a6d56;}

          .main-fill--darkener {fill: #000000;}
          .main-stroke--darkener {stroke: #000000;}
          .secondary-fill--darkener {fill: #104436;}
          .secondary-stroke--darkener {stroke: #104436;}
        </style></svg>