<svg xmlns="http://www.w3.org/2000/svg" width="70" height="70" viewBox="0 0 70 70" style="width: 100%; height: 100%;"><desc>Made with illustrio</desc>
  
<g class="content"><circle cx="50%" cy="50%" r="27px" class="main-fill"></circle><g class="base"><g fill="none" fill-rule="evenodd" stroke="none" class="secondary-fill">
    
    <path fill="none" d="M2,13.2 C1.4,14.5 1.6,15.8 2.8,17 C4,18.2 5.3,18.5 6.6,17.9 C7,19.1 8,19.8 9.4,20 L9.4,22.7 C8.1,22.3 7.8,22.1 7,22 C6.3,21.9 5.5,21.7 4.5,21.3 C4.3,21.2 4,21.2 3.8,21.3 C3.6,21.4 3.5,21.7 3.5,21.9 C3.5,22 3.7,25.3 5.7,27.2 C6.4,27.9 8,28.2 9.3,28.1 L9.3,29.4 C9.3,29.8 9.6,30.1 10,30.1 C10.4,30.1 10.7,29.8 10.7,29.4 L10.7,28.1 C10.7,28.2 11,28.2 11.3,28.2 C12.1,28.2 12.9,27.9 13.6,27.2 C15.6,25.2 15.8,22 15.8,21.9 C15.8,21.7 15.6,21.4 15.5,21.3 C15.3,21.2 15.1,21.2 14.8,21.3 C13.9,21.7 13.4,21.9 12.7,22 C12,22.1 10.8,22.3 10.8,22.7 L10.8,20 C12.1,19.8 13,19.1 13.3,17.9 C14.6,18.6 16,18.3 17.2,17.1 C18.4,15.9 18.7,14.6 18,13.3 C19.3,12.8 20.1,11.7 20.1,10 C20.1,8.3 19.3,7.1 17.9,6.7 C18.5,5.4 18.2,4 17,2.9 C15.8,1.7 14.4,1.4 13.1,2.1 C12.6,0.8 11.5,0.1 9.8,0.1 C8.2,0.1 7,0.8 6.6,2.1 C5.4,1.4 4.1,1.7 3,2.9 C1.8,4.1 1.5,5.4 2.1,6.7 C0.7,7.1 -1.77635684e-15,8.3 -1.77635684e-15,10 C-1.77635684e-15,11.6 0.7,12.7 2,13.2 L2,13.2 Z M9.3,26.6 C8,27.1 7.5,27 6.8,26.3 C5.8,25.3 5.2,23.9 5,22.9 C5.6,23.1 6.1,23.2 6.5,23.3 C7.4,23.5 9.3,24.4 9.3,24.5 L9.3,26.6 L9.3,26.6 Z M10.7,24.2 C11.3,23.6 11.8,23.5 12.7,23.3 C13.1,23.2 13.7,23.1 14.3,22.9 C14.1,23.9 13.7,25.3 12.7,26.3 C12,27 10.6,27.1 10.6,26.6 L10.6,24.5 C10.7,24.4 10.6,24.3 10.7,24.2 L10.7,24.2 Z M10,4.8 C12.9,4.8 15.3,7.2 15.3,10.1 C15.3,13 12.9,15.4 10,15.4 C7.1,15.4 4.7,13 4.7,10.1 C4.7,7.1 7.1,4.8 10,4.8 L10,4.8 Z" transform="translate(24 19)" stroke="none" class="secondary-fill"></path>
  </g></g></g><style>
          .main-fill {fill: #313A3D;}
          .main-stroke {stroke: #313A3D;}
          .secondary-fill {fill: #29AB87;}
          .secondary-stroke {stroke: #29AB87;}

          .main-fill--darken {fill: #0f1213;}
          .main-stroke--darken {stroke: #0f1213;}
          .secondary-fill--darken {fill: #1a6d56;}
          .secondary-stroke--darken {stroke: #1a6d56;}

          .main-fill--darkener {fill: #000000;}
          .main-stroke--darkener {stroke: #000000;}
          .secondary-fill--darkener {fill: #104436;}
          .secondary-stroke--darkener {stroke: #104436;}
        </style></svg>