<svg xmlns="http://www.w3.org/2000/svg" width="70" height="70" viewBox="0 0 70 70" style="width: 100%; height: 100%;"><desc>Made with illustrio</desc>
  
<g class="content"><circle cx="50%" cy="50%" r="27px" class="main-fill"></circle><g class="base"><g fill="none" fill-rule="evenodd" stroke="none" class="secondary-fill">
    
    
  </g><g fill="none" transform="translate(17.818 17.818)" stroke="none" class="secondary-fill">
      <polygon stroke="none" stroke-width="1.273" points="21 6.364 27.364 11.455 7 11.455 13.364 6.364 13.364 0 21 0" fill="none" class="secondary-fill"></polygon>
      <g transform="translate(0 21)" fill="none" stroke="none" class="secondary-fill">
        <rect width="6.364" height="2.545" x="14" y="6.364" fill="none" stroke="none" class="secondary-fill"></rect>
        <path d="M33.7272727,0 L0.636363636,0 C0.285090909,0 0,0.284454545 0,0.636363636 C0,0.988272727 0.285090909,1.27272727 0.636363636,1.27272727 L1.27272727,1.27272727 L1.27272727,12.0909091 C1.27272727,12.4428182 1.55781818,12.7272727 1.90909091,12.7272727 L10.1818182,12.7272727 L10.1818182,1.90909091 L11.4545455,1.90909091 L11.4545455,12.7272727 L22.9090909,12.7272727 L22.9090909,1.90909091 L24.1818182,1.90909091 L24.1818182,12.7272727 L32.4545455,12.7272727 C32.8064545,12.7272727 33.0909091,12.4428182 33.0909091,12.0909091 L33.0909091,1.27272727 L33.7272727,1.27272727 C34.0791818,1.27272727 34.3636364,0.988272727 34.3636364,0.636363636 C34.3636364,0.284454545 34.0791818,0 33.7272727,0 L33.7272727,0 Z M13.3636364,2.54545455 L14.6363636,2.54545455 C14.9876364,2.54545455 15.2727273,2.82990909 15.2727273,3.18181818 C15.2727273,3.53372727 14.9876364,3.81818182 14.6363636,3.81818182 L13.3636364,3.81818182 C13.0123636,3.81818182 12.7272727,3.53372727 12.7272727,3.18181818 C12.7272727,2.82990909 13.0123636,2.54545455 13.3636364,2.54545455 L13.3636364,2.54545455 Z M21.6363636,9.54545455 C21.6363636,9.89736364 21.3519091,10.1818182 21,10.1818182 L13.3636364,10.1818182 C13.0123636,10.1818182 12.7272727,9.89736364 12.7272727,9.54545455 L12.7272727,5.72727273 C12.7272727,5.37536364 13.0123636,5.09090909 13.3636364,5.09090909 L21,5.09090909 C21.3519091,5.09090909 21.6363636,5.37536364 21.6363636,5.72727273 L21.6363636,9.54545455 L21.6363636,9.54545455 Z M21,3.81818182 L19.7272727,3.81818182 C19.3753636,3.81818182 19.0909091,3.53372727 19.0909091,3.18181818 C19.0909091,2.82990909 19.3753636,2.54545455 19.7272727,2.54545455 L21,2.54545455 C21.3519091,2.54545455 21.6363636,2.82990909 21.6363636,3.18181818 C21.6363636,3.53372727 21.3519091,3.81818182 21,3.81818182 L21,3.81818182 Z" fill="none" stroke="none" class="secondary-fill"></path>
      </g>
    </g></g></g><style>
          .main-fill {fill: #313A3D;}
          .main-stroke {stroke: #313A3D;}
          .secondary-fill {fill: #29AB87;}
          .secondary-stroke {stroke: #29AB87;}

          .main-fill--darken {fill: #0f1213;}
          .main-stroke--darken {stroke: #0f1213;}
          .secondary-fill--darken {fill: #1a6d56;}
          .secondary-stroke--darken {stroke: #1a6d56;}

          .main-fill--darkener {fill: #000000;}
          .main-stroke--darkener {stroke: #000000;}
          .secondary-fill--darkener {fill: #104436;}
          .secondary-stroke--darkener {stroke: #104436;}
        </style></svg>