<svg xmlns="http://www.w3.org/2000/svg" width="70" height="70" viewBox="0 0 70 70" style="width: 100%; height: 100%;"><desc>Made with illustrio</desc>
  
<g class="content"><circle cx="50%" cy="50%" r="27px" class="main-fill"></circle><g class="base"><g fill="none" fill-rule="evenodd" stroke="none" class="secondary-fill">
    
    
  </g><g fill="none" transform="translate(17.818 17.818)" stroke="none" class="secondary-fill">
      <rect width="7.636" height="25.455" x="6.364" y="8.909" fill="none" stroke="none" class="secondary-fill"></rect>
      <rect width="7.636" height="25.455" x="15.273" y="8.909" fill="none" stroke="none" class="secondary-fill"></rect>
      <path d="M33.7272727,0 L0.636363636,0 C0.285090909,0 0,0.285090909 0,0.636363636 L0,33.7272727 C0,34.0791818 0.285090909,34.3636364 0.636363636,34.3636364 L5.09090909,34.3636364 L5.09090909,8.27272727 C5.09090909,7.92145455 5.376,7.63636364 5.72727273,7.63636364 L23.5454545,7.63636364 C23.8973636,7.63636364 24.1818182,7.92145455 24.1818182,8.27272727 L24.1818182,34.3636364 L33.7272727,34.3636364 C34.0791818,34.3636364 34.3636364,34.0791818 34.3636364,33.7272727 L34.3636364,0.636363636 C34.3636364,0.285090909 34.0791818,0 33.7272727,0 L33.7272727,0 Z M17.1818182,5.09090909 L12.0909091,5.09090909 C11.7396364,5.09090909 11.4545455,4.80581818 11.4545455,4.45454545 C11.4545455,4.10327273 11.7396364,3.81818182 12.0909091,3.81818182 L17.1818182,3.81818182 C17.5330909,3.81818182 17.8181818,4.10327273 17.8181818,4.45454545 C17.8181818,4.80581818 17.5330909,5.09090909 17.1818182,5.09090909 L17.1818182,5.09090909 Z M30.359,21.4499091 L29.0862727,22.7226364 C28.9621818,22.8467273 28.7992727,22.9090909 28.6363636,22.9090909 C28.4734545,22.9090909 28.3105455,22.8467273 28.1864545,22.7226364 L26.9137273,21.4499091 C26.6649091,21.2010909 26.6649091,20.7989091 26.9137273,20.5500909 C27.1625455,20.3012727 27.5647273,20.3012727 27.8135455,20.5500909 L28.6363636,21.3729091 L29.4591818,20.5500909 C29.708,20.3012727 30.1101818,20.3012727 30.359,20.5500909 C30.6078182,20.7989091 30.6078182,21.2010909 30.359,21.4499091 L30.359,21.4499091 Z M30.359,18.9044545 C30.2349091,19.0285455 30.072,19.0909091 29.9090909,19.0909091 C29.7461818,19.0909091 29.5832727,19.0285455 29.4591818,18.9044545 L28.6363636,18.0816364 L27.8135455,18.9044545 C27.5647273,19.1532727 27.1625455,19.1532727 26.9137273,18.9044545 C26.6649091,18.6556364 26.6649091,18.2534545 26.9137273,18.0046364 L28.1864545,16.7319091 C28.4352727,16.4830909 28.8374545,16.4830909 29.0862727,16.7319091 L30.359,18.0046364 C30.6078182,18.2534545 30.6078182,18.6556364 30.359,18.9044545 L30.359,18.9044545 Z" fill="none" stroke="none" class="secondary-fill"></path>
    </g></g></g><style>
          .main-fill {fill: #313A3D;}
          .main-stroke {stroke: #313A3D;}
          .secondary-fill {fill: #29AB87;}
          .secondary-stroke {stroke: #29AB87;}

          .main-fill--darken {fill: #0f1213;}
          .main-stroke--darken {stroke: #0f1213;}
          .secondary-fill--darken {fill: #1a6d56;}
          .secondary-stroke--darken {stroke: #1a6d56;}

          .main-fill--darkener {fill: #000000;}
          .main-stroke--darkener {stroke: #000000;}
          .secondary-fill--darkener {fill: #104436;}
          .secondary-stroke--darkener {stroke: #104436;}
        </style></svg>