<svg xmlns="http://www.w3.org/2000/svg" width="70" height="70" viewBox="0 0 70 70" style="width: 100%; height: 100%;"><desc>Made with illustrio</desc>
  
<g class="content"><circle cx="50%" cy="50%" r="27px" class="main-fill"></circle><g class="base"><g fill="none" fill-rule="evenodd" stroke="none" class="secondary-fill">
    
    <path fill="none" d="M23.5454545,0 L0.636363636,0 C0.285090909,0 0,0.285090909 0,0.636363636 L0,33.7272727 C0,34.0791818 0.285090909,34.3636364 0.636363636,34.3636364 C0.987636364,34.3636364 1.27272727,34.0791818 1.27272727,33.7272727 L1.27272727,31.8181818 L11.4545455,31.8181818 L11.4545455,33.7272727 C11.4545455,34.0791818 11.7396364,34.3636364 12.0909091,34.3636364 C12.4421818,34.3636364 12.7272727,34.0791818 12.7272727,33.7272727 L12.7272727,31.8181818 L22.9090909,31.8181818 L22.9090909,33.7272727 C22.9090909,34.0791818 23.1935455,34.3636364 23.5454545,34.3636364 C23.8973636,34.3636364 24.1818182,34.0791818 24.1818182,33.7272727 L24.1818182,0.636363636 C24.1818182,0.285090909 23.8973636,0 23.5454545,0 L23.5454545,0 Z M14,15.9090909 C14,15.5578182 14.2844545,15.2727273 14.6363636,15.2727273 C14.9882727,15.2727273 15.2727273,15.5578182 15.2727273,15.9090909 L15.2727273,17.1818182 C15.2727273,17.5330909 14.9882727,17.8181818 14.6363636,17.8181818 C14.2844545,17.8181818 14,17.5330909 14,17.1818182 L14,15.9090909 L14,15.9090909 Z M12.7272727,1.27272727 L12.7272727,30.5454545 L11.4545455,30.5454545 L11.4545455,1.27272727 L12.7272727,1.27272727 L12.7272727,1.27272727 Z M10.1818182,3.18181818 C10.1818182,3.53309091 9.89672727,3.81818182 9.54545455,3.81818182 L3.18181818,3.81818182 C2.83054545,3.81818182 2.54545455,3.53309091 2.54545455,3.18181818 C2.54545455,2.83054545 2.83054545,2.54545455 3.18181818,2.54545455 L9.54545455,2.54545455 C9.89672727,2.54545455 10.1818182,2.83054545 10.1818182,3.18181818 L10.1818182,3.18181818 Z M2.54545455,15.9090909 C2.54545455,15.5578182 2.83054545,15.2727273 3.18181818,15.2727273 C3.53309091,15.2727273 3.81818182,15.5578182 3.81818182,15.9090909 L3.81818182,17.1818182 C3.81818182,17.5330909 3.53309091,17.8181818 3.18181818,17.8181818 C2.83054545,17.8181818 2.54545455,17.5330909 2.54545455,17.1818182 L2.54545455,15.9090909 L2.54545455,15.9090909 Z M3.18181818,6.36363636 C2.83054545,6.36363636 2.54545455,6.07854545 2.54545455,5.72727273 C2.54545455,5.376 2.83054545,5.09090909 3.18181818,5.09090909 L9.54545455,5.09090909 C9.89672727,5.09090909 10.1818182,5.376 10.1818182,5.72727273 C10.1818182,6.07854545 9.89672727,6.36363636 9.54545455,6.36363636 L3.18181818,6.36363636 L3.18181818,6.36363636 Z M3.18181818,28 C2.83054545,28 2.54545455,27.7155455 2.54545455,27.3636364 C2.54545455,27.0117273 2.83054545,26.7272727 3.18181818,26.7272727 L9.54545455,26.7272727 C9.89672727,26.7272727 10.1818182,27.0117273 10.1818182,27.3636364 C10.1818182,27.7155455 9.89672727,28 9.54545455,28 L3.18181818,28 L3.18181818,28 Z M21,28 L14.6363636,28 C14.2844545,28 14,27.7155455 14,27.3636364 C14,27.0117273 14.2844545,26.7272727 14.6363636,26.7272727 L21,26.7272727 C21.3519091,26.7272727 21.6363636,27.0117273 21.6363636,27.3636364 C21.6363636,27.7155455 21.3519091,28 21,28 L21,28 Z M21,6.36363636 L14.6363636,6.36363636 C14.2844545,6.36363636 14,6.07854545 14,5.72727273 C14,5.376 14.2844545,5.09090909 14.6363636,5.09090909 L21,5.09090909 C21.3519091,5.09090909 21.6363636,5.376 21.6363636,5.72727273 C21.6363636,6.07854545 21.3519091,6.36363636 21,6.36363636 L21,6.36363636 Z M21,3.81818182 L14.6363636,3.81818182 C14.2844545,3.81818182 14,3.53309091 14,3.18181818 C14,2.83054545 14.2844545,2.54545455 14.6363636,2.54545455 L21,2.54545455 C21.3519091,2.54545455 21.6363636,2.83054545 21.6363636,3.18181818 C21.6363636,3.53309091 21.3519091,3.81818182 21,3.81818182 L21,3.81818182 Z" transform="translate(22.91 17.818)" stroke="none" class="secondary-fill"></path>
  </g></g></g><style>
          .main-fill {fill: #313A3D;}
          .main-stroke {stroke: #313A3D;}
          .secondary-fill {fill: #29AB87;}
          .secondary-stroke {stroke: #29AB87;}

          .main-fill--darken {fill: #0f1213;}
          .main-stroke--darken {stroke: #0f1213;}
          .secondary-fill--darken {fill: #1a6d56;}
          .secondary-stroke--darken {stroke: #1a6d56;}

          .main-fill--darkener {fill: #000000;}
          .main-stroke--darkener {stroke: #000000;}
          .secondary-fill--darkener {fill: #104436;}
          .secondary-stroke--darkener {stroke: #104436;}
        </style></svg>