<svg xmlns="http://www.w3.org/2000/svg" width="70" height="70" viewBox="0 0 70 70" style="width: 100%; height: 100%;"><desc>Made with illustrio</desc>
  
<g class="content"><circle cx="50%" cy="50%" r="27px" class="main-fill"></circle><g class="base"><g fill="none" fill-rule="evenodd" stroke="none" class="secondary-fill">
    
    
  </g><g fill="none" transform="translate(23.545 18.455)" stroke="none" class="secondary-fill">
      <path d="M11.739,23.4786364 C11.6499091,23.5231818 11.5519091,23.5454545 11.4545455,23.5454545 C11.3571818,23.5454545 11.2591818,23.5231818 11.1700909,23.4786364 L10.2696364,23.0287273 L8.12127273,24.8181818 L14.7871818,24.8181818 L12.6388182,23.0287273 L11.739,23.4786364 L11.739,23.4786364 Z" fill="none" stroke="none" class="secondary-fill"></path>
      <polygon points="15.909 24.095 15.909 21.393 13.882 22.407" fill="none" stroke="none" class="secondary-fill"></polygon>
      <polygon points="7 21.393 7 24.095 9.027 22.407" fill="none" stroke="none" class="secondary-fill"></polygon>
      <polygon points="13.85 21 9.059 21 11.455 22.198" fill="none" stroke="none" class="secondary-fill"></polygon>
      <path d="M11.4545455,0 C5.13863636,0 0,5.13863636 0,11.4545455 L0,31.8181818 C0,32.5207273 0.570181818,33.0909091 1.27272727,33.0909091 L21.6363636,33.0909091 C22.3389091,33.0909091 22.9090909,32.5207273 22.9090909,31.8181818 L22.9090909,11.4545455 C22.9090909,5.13863636 17.7704545,0 11.4545455,0 L11.4545455,0 Z M17.1818182,25.4545455 C17.1818182,25.8064545 16.8973636,26.0909091 16.5454545,26.0909091 L6.36363636,26.0909091 C6.01236364,26.0909091 5.72727273,25.8064545 5.72727273,25.4545455 L5.72727273,20.3636364 C5.72727273,20.0117273 6.01236364,19.7272727 6.36363636,19.7272727 L16.5454545,19.7272727 C16.8973636,19.7272727 17.1818182,20.0117273 17.1818182,20.3636364 L17.1818182,25.4545455 L17.1818182,25.4545455 Z M7,14 C7,13.6487273 7.28509091,13.3636364 7.63636364,13.3636364 L15.2727273,13.3636364 C15.6246364,13.3636364 15.9090909,13.6487273 15.9090909,14 C15.9090909,14.3512727 15.6246364,14.6363636 15.2727273,14.6363636 L7.63636364,14.6363636 C7.28509091,14.6363636 7,14.3512727 7,14 L7,14 Z M17.8181818,12.7272727 L5.09090909,12.7272727 C4.38836364,12.7272727 3.81818182,12.1570909 3.81818182,11.4545455 C3.81818182,10.752 4.38836364,10.1818182 5.09090909,10.1818182 L17.8181818,10.1818182 C18.5207273,10.1818182 19.0909091,10.752 19.0909091,11.4545455 C19.0909091,12.1570909 18.5207273,12.7272727 17.8181818,12.7272727 L17.8181818,12.7272727 Z" fill="none" stroke="none" class="secondary-fill"></path>
    </g></g></g><style>
          .main-fill {fill: #313A3D;}
          .main-stroke {stroke: #313A3D;}
          .secondary-fill {fill: #29AB87;}
          .secondary-stroke {stroke: #29AB87;}

          .main-fill--darken {fill: #0f1213;}
          .main-stroke--darken {stroke: #0f1213;}
          .secondary-fill--darken {fill: #1a6d56;}
          .secondary-stroke--darken {stroke: #1a6d56;}

          .main-fill--darkener {fill: #000000;}
          .main-stroke--darkener {stroke: #000000;}
          .secondary-fill--darkener {fill: #104436;}
          .secondary-stroke--darkener {stroke: #104436;}
        </style></svg>