<svg xmlns="http://www.w3.org/2000/svg" width="70" height="70" viewBox="0 0 70 70" style="width: 100%; height: 100%;"><desc>Made with illustrio</desc>
  
<g class="content"><circle cx="50%" cy="50%" r="27px" class="main-fill"></circle><g class="base"><g fill="none" fill-rule="evenodd" stroke="none" class="secondary-fill">
    
    <path fill="none" d="M12,4 C12,1.793 13.789,0 16,0 C18.207,0 20,1.793 20,4 C20,6.211 18.207,8 16,8 C13.789,8 12,6.211 12,4 Z M24,12 C24,10.895 23.105,10 22,10 L10,10 C8.895,10 8,10.895 8,12 L8,22 L12,22 L12,30 C12,31.105 12.895,32 14,32 L18,32 C19.105,32 20,31.105 20,30 L20,22 L24,22 L24,12 Z M25,8 C26.656,8 28,6.656 28,5 C28,3.344 26.656,2 25,2 C23.344,2 22,3.344 22,5 C22,6.656 23.344,8 25,8 Z M30,10 L26,10 L26,24 L22,24 L22,30 L26,30 C27.105,30 28,29.105 28,28 L28,22 L32,22 L32,12 C32,10.895 31.105,10 30,10 Z M7,8 C8.656,8 10,6.656 10,5 C10,3.344 8.656,2 7,2 C5.344,2 4,3.344 4,5 C4,6.656 5.344,8 7,8 Z M6,10 L2,10 C0.895,10 0,10.895 0,12 L0,22 L4,22 L4,28 C4,29.105 4.895,30 6,30 L10,30 L10,24 L6,24 L6,10 Z" transform="translate(19 19)" stroke="none" class="secondary-fill"></path>
  </g></g></g><style>
          .main-fill {fill: #313A3D;}
          .main-stroke {stroke: #313A3D;}
          .secondary-fill {fill: #29AB87;}
          .secondary-stroke {stroke: #29AB87;}

          .main-fill--darken {fill: #0f1213;}
          .main-stroke--darken {stroke: #0f1213;}
          .secondary-fill--darken {fill: #1a6d56;}
          .secondary-stroke--darken {stroke: #1a6d56;}

          .main-fill--darkener {fill: #000000;}
          .main-stroke--darkener {stroke: #000000;}
          .secondary-fill--darkener {fill: #104436;}
          .secondary-stroke--darkener {stroke: #104436;}
        </style></svg>