<svg xmlns="http://www.w3.org/2000/svg" width="70" height="70" viewBox="0 0 70 70" style="width: 100%; height: 100%;"><desc>Made with illustrio</desc>
  
<g class="content"><circle cx="50%" cy="50%" r="27px" class="main-fill"></circle><g class="base"><g fill="none" fill-rule="evenodd" stroke="none" class="secondary-fill">
    
    <path fill="none" d="M32.8866364,11.8726364 C32.459,10.5572727 31.2435455,9.67336364 29.8607273,9.67336364 C29.5279091,9.67336364 29.1963636,9.72618182 28.8762727,9.82990909 C27.4151818,10.3052727 26.5319091,11.7434545 26.6986364,13.2140909 L20.5367273,15.2160909 C19.8990909,13.9268182 18.6569091,12.9907273 17.1818182,12.7781818 L17.1818182,6.29936364 C18.6320909,6.00345455 19.7272727,4.71863636 19.7272727,3.18181818 C19.7272727,1.42736364 18.2999091,0 16.5454545,0 C14.791,0 13.3636364,1.42736364 13.3636364,3.18181818 C13.3636364,4.71863636 14.4588182,6.00345455 15.9090909,6.29936364 L15.9090909,12.7781818 C14.4333636,12.9907273 13.1918182,13.9261818 12.5541818,15.2160909 L6.39227273,13.2140909 C6.559,11.7434545 5.67572727,10.3052727 4.21463636,9.82990909 C3.89518182,9.72618182 3.56427273,9.67336364 3.23081818,9.67336364 C1.84863636,9.67336364 0.632545455,10.5572727 0.204909091,11.8726364 C-0.337272727,13.5411818 0.579090909,15.3401818 2.24763636,15.8823636 C2.56709091,15.9860909 2.898,16.0389091 3.23145455,16.0389091 C4.396,16.0389091 5.43581818,15.407 5.99263636,14.4225455 L12.1602727,16.4264545 C12.1176364,16.6720909 12.0909091,16.9240909 12.0909091,17.1818182 C12.0909091,18.4106364 12.6044545,19.5834545 13.4966364,20.4240909 L9.62945455,25.746 C9.219,25.5589091 8.77672727,25.4539091 8.31727273,25.4539091 C7.301,25.4539091 6.33818182,25.9445455 5.74127273,26.7654545 C5.24172727,27.4527273 5.03936364,28.294 5.17236364,29.134 C5.30536364,29.974 5.75718182,30.7115455 6.44509091,31.2104545 C6.993,31.6075455 7.63890909,31.8181818 8.31345455,31.8181818 C9.33036364,31.8181818 10.2931818,31.3275455 10.8900909,30.506 C11.3896364,29.8187273 11.5913636,28.9780909 11.4583636,28.1387273 C11.3590909,27.5125455 11.0822727,26.9442727 10.6635455,26.4886364 L14.5377273,21.1565455 C15.1556364,21.4683636 15.841,21.6363636 16.5454545,21.6363636 C17.2944545,21.6363636 17.9995455,21.4486364 18.62,21.1202727 L22.4273636,26.3600909 C22.008,26.8157273 21.7305455,27.3833636 21.6319091,28.0101818 C21.4989091,28.8489091 21.7006364,29.6901818 22.2008182,30.3774545 C22.7977273,31.199 23.7605455,31.6896364 24.7774545,31.6896364 C25.4526364,31.6896364 26.0979091,31.479 26.6458182,31.0819091 C27.3330909,30.5823636 27.7849091,29.8448182 27.9179091,29.0048182 C28.0509091,28.1648182 27.8491818,27.3235455 27.349,26.6362727 C26.7520909,25.8153636 25.7892727,25.3247273 24.773,25.3247273 C24.3135455,25.3247273 23.8706364,25.4297273 23.4608182,25.6168182 L19.649,20.37 C20.4807273,19.5611818 21,18.4316364 21,17.1818182 C21,16.9240909 20.9732727,16.6720909 20.9312727,16.4258182 L27.0982727,14.4219091 C27.6550909,15.4057273 28.6949091,16.0382727 29.8600909,16.0382727 C30.1929091,16.0382727 30.5244545,15.9854545 30.8432727,15.8817273 C32.5118182,15.3395455 33.4281818,13.5411818 32.8866364,11.8726364 L32.8866364,11.8726364 Z" transform="translate(18.455 19.09)" stroke="none" class="secondary-fill"></path>
  </g></g></g><style>
          .main-fill {fill: #313A3D;}
          .main-stroke {stroke: #313A3D;}
          .secondary-fill {fill: #29AB87;}
          .secondary-stroke {stroke: #29AB87;}

          .main-fill--darken {fill: #0f1213;}
          .main-stroke--darken {stroke: #0f1213;}
          .secondary-fill--darken {fill: #1a6d56;}
          .secondary-stroke--darken {stroke: #1a6d56;}

          .main-fill--darkener {fill: #000000;}
          .main-stroke--darkener {stroke: #000000;}
          .secondary-fill--darkener {fill: #104436;}
          .secondary-stroke--darkener {stroke: #104436;}
        </style></svg>