<svg xmlns="http://www.w3.org/2000/svg" width="70" height="70" viewBox="0 0 70 70" style="width: 100%; height: 100%;"><desc>Made with illustrio</desc>
  
<g class="content"><circle cx="50%" cy="50%" r="27px" class="main-fill"></circle><g class="base"><g fill="none" fill-rule="evenodd" stroke="none" class="secondary-fill">
    
    
    <path fill="none" d="M0,0.149132941 L0,18.26678 L34.5882353,18.26678 L34.5882353,0.149132941 L0,0.149132941 Z M17.2941176,4.26678 C18.4311746,4.26678 19.3529412,5.18854824 19.3529412,6.32560353 C19.3529412,7.46266294 18.4311746,8.38442706 17.2941176,8.38442706 C16.1570607,8.38442706 15.2352941,7.46266294 15.2352941,6.32560353 C15.2352941,5.18854824 16.1570607,4.26678 17.2941176,4.26678 Z M17.2941176,10.0314859 C19.4829328,10.0314859 21.3111088,11.4492646 21.7334559,13.3256035 L26.3529412,13.3256035 C26.6499355,13.3214033 26.9261847,13.477442 27.0759075,13.7339694 C27.2256304,13.9904968 27.2256304,14.3077691 27.0759075,14.5642965 C26.9261847,14.8208239 26.6499355,14.9768626 26.3529412,14.9726624 L8.23529412,14.9726624 C7.94103893,14.9865145 7.66175111,14.8423104 7.50266022,14.5943828 C7.34356932,14.3464552 7.32885177,14.0324808 7.46405282,13.7707582 C7.59925386,13.5090357 7.86382753,13.339338 8.15808824,13.3256035 C8.18380938,13.3243966 8.20957297,13.3243966 8.23529412,13.3256035 L12.8547794,13.3256035 C13.2771265,11.4492646 15.1053029,10.0314859 17.2941176,10.0314859 Z M14,19.9138388 L12.5588235,25.6785447 L8.23529412,25.6785447 C8.20957297,25.6773378 8.18380938,25.6773378 8.15808824,25.6785447 C7.86382753,25.6922792 7.59925386,25.8619769 7.46405282,26.1236994 C7.32885177,26.3854219 7.34356932,26.6993964 7.50266022,26.9473239 C7.66175111,27.1952515 7.94103893,27.3394557 8.23529412,27.3256035 L26.3529412,27.3256035 C26.6499355,27.3298038 26.9261847,27.1737651 27.0759075,26.9172377 C27.2256304,26.6607103 27.2256304,26.343438 27.0759075,26.0869106 C26.9261847,25.8303832 26.6499355,25.6743445 26.3529412,25.6785447 L22.0294118,25.6785447 L20.5882353,19.9138388 L14,19.9138388 Z" transform="translate(17.706 21.263)" stroke="none" class="secondary-fill"></path>
  </g></g></g><style>
          .main-fill {fill: #313A3D;}
          .main-stroke {stroke: #313A3D;}
          .secondary-fill {fill: #29AB87;}
          .secondary-stroke {stroke: #29AB87;}

          .main-fill--darken {fill: #0f1213;}
          .main-stroke--darken {stroke: #0f1213;}
          .secondary-fill--darken {fill: #1a6d56;}
          .secondary-stroke--darken {stroke: #1a6d56;}

          .main-fill--darkener {fill: #000000;}
          .main-stroke--darkener {stroke: #000000;}
          .secondary-fill--darkener {fill: #104436;}
          .secondary-stroke--darkener {stroke: #104436;}
        </style></svg>