<svg xmlns="http://www.w3.org/2000/svg" width="70" height="70" viewBox="0 0 70 70" style="width: 100%; height: 100%;"><desc>Made with illustrio</desc>
  
<g class="content"><circle cx="50%" cy="50%" r="27px" class="main-fill"></circle><g class="base"><g fill="none" fill-rule="evenodd" stroke="none" class="secondary-fill">
    
    
  </g><g fill="none" transform="translate(19 20)" stroke="none" class="secondary-fill">
      <path d="M1.5,9.9 C1.3,9.9 1,9.8 0.9,9.6 C0.7,9.3 0.8,8.9 1.1,8.7 L14.9,0.7 C15,0.6 15.3,0.6 15.4,0.6 L15.4,0.6 C15.5,0.6 15.7,0.7 15.8,0.7 L30.7,8.7 C31,8.9 31.1,9.2 31,9.6 C30.8,9.9 30.4,10 30.1,9.8 L15.4,1.9 L1.8,9.8 C1.7,9.9 1.6,9.9 1.5,9.9 L1.5,9.9 Z" fill="none" stroke="none" class="secondary-fill"></path>
      <path d="M29.3,13 L26.8,13 L25.2,9.3 C25,9.1 24.8,9 24.6,9 L7.2,9 C6.9,9 6.8,9 6.7,9.3 L5.2,13 L5.2,13 L2.5,13 C2.1,13 1.8,13.1 1.8,13.5 C1.8,13.9 2.1,14 2.5,14 L4.8,14 L4.4,14.9 L4.4,15 L3.4,15 C3.1,15 3,15.1 3,15.5 L3,24.7 C3,25 3,25 3.4,25 L4,25 L4,27.5 C4,27.9 4.1,28 4.5,28 L8.5,28 C8.9,28 9,27.9 9,27.5 L9,25 L23,25 L23,27.5 C23,27.9 23.1,28 23.5,28 L27.7,28 C28.1,28 28.1,27.9 28.1,27.5 L28.1,25 L28.7,25 C29.1,25 29.1,25 29.1,24.6 L29.1,15.4 C29.1,15 29.1,15 28.7,15 L27.9,15 C27.9,15 27.9,15 27.8,14.9 L27.3,14 L29.2,14 C29.6,14 29.9,13.9 29.9,13.5 C29.9,13.1 29.6,13 29.3,13 L29.3,13 Z M7.6,10 L24.1,10 L26.4,15 L5.7,15 L7.6,10 L7.6,10 Z M12,21.3 C12,21.7 11.7,22 11.3,22 L5.7,22 C5.3,22 5,21.7 5,21.3 L5,18.6 C5,18.3 5.3,18 5.7,18 L11.4,18 C11.8,18 12.1,18.3 12.1,18.7 L12.1,21.3 L12,21.3 Z M18.5,22 L13.1,22 C12.7,22 12.4,21.9 12.4,21.5 C12.4,21.1 12.7,21 13.1,21 L18.5,21 C18.9,21 19.2,21.1 19.2,21.5 C19.2,21.9 18.9,22 18.5,22 L18.5,22 Z M18.5,19 L13.1,19 C12.7,19 12.4,18.9 12.4,18.5 C12.4,18.1 12.7,18 13.1,18 L18.5,18 C18.9,18 19.2,18.1 19.2,18.5 C19.2,18.9 18.9,19 18.5,19 L18.5,19 Z M27,21.3 C27,21.7 26.7,22 26.3,22 L20.6,22 C20.2,22 19.9,21.7 19.9,21.3 L19.9,18.6 C19.9,18.2 20.2,17.9 20.6,17.9 L26.3,17.9 C26.7,17.9 27,18.2 27,18.6 L27,21.3 L27,21.3 Z" fill="none" stroke="none" class="secondary-fill"></path>
    </g></g></g><style>
          .main-fill {fill: #313A3D;}
          .main-stroke {stroke: #313A3D;}
          .secondary-fill {fill: #29AB87;}
          .secondary-stroke {stroke: #29AB87;}

          .main-fill--darken {fill: #0f1213;}
          .main-stroke--darken {stroke: #0f1213;}
          .secondary-fill--darken {fill: #1a6d56;}
          .secondary-stroke--darken {stroke: #1a6d56;}

          .main-fill--darkener {fill: #000000;}
          .main-stroke--darkener {stroke: #000000;}
          .secondary-fill--darkener {fill: #104436;}
          .secondary-stroke--darkener {stroke: #104436;}
        </style></svg>