<svg xmlns="http://www.w3.org/2000/svg" width="70" height="70" viewBox="0 0 70 70" style="width: 100%; height: 100%;"><desc>Made with illustrio</desc>
  
<g class="content"><circle cx="50%" cy="50%" r="27px" class="main-fill"></circle><g class="base"><g fill="none" fill-rule="evenodd" stroke="none" class="secondary-fill">
    
    <path fill="none" d="M32,4 L32,10 L22,10 L22,6 L10,6 L10,10 L0,10 L0,4 L2,2.906 C6.301,1.059 11.016,0 16,0 C20.984,0 25.699,1.059 30,2.906 L32,4 Z M32,24 L32,30 C32,31.105 31.105,32 30,32 L2,32 C0.895,32 0,31.105 0,30 L0,24 C0,19.215 2.109,14.934 5.441,12 L12,12 L12,8.527 C13.281,8.195 14.617,8 16,8 C17.383,8 18.719,8.195 20,8.527 L20,12 L26.559,12 C29.887,14.934 32,19.215 32,24 Z M24,21 C24,18.238 20.418,16 16,16 C11.582,16 8,18.238 8,21 C8,23.762 11.582,26 16,26 C20.418,26 24,23.762 24,21 Z" transform="translate(19 19)" stroke="none" class="secondary-fill"></path>
  </g></g></g><style>
          .main-fill {fill: #313A3D;}
          .main-stroke {stroke: #313A3D;}
          .secondary-fill {fill: #29AB87;}
          .secondary-stroke {stroke: #29AB87;}

          .main-fill--darken {fill: #0f1213;}
          .main-stroke--darken {stroke: #0f1213;}
          .secondary-fill--darken {fill: #1a6d56;}
          .secondary-stroke--darken {stroke: #1a6d56;}

          .main-fill--darkener {fill: #000000;}
          .main-stroke--darkener {stroke: #000000;}
          .secondary-fill--darkener {fill: #104436;}
          .secondary-stroke--darkener {stroke: #104436;}
        </style></svg>