<svg xmlns="http://www.w3.org/2000/svg" width="70" height="70" viewBox="0 0 70 70" style="width: 100%; height: 100%;"><desc>Made with illustrio</desc>
  
<g class="content"><circle cx="50%" cy="50%" r="27px" class="main-fill"></circle><g class="base"><g fill="none" fill-rule="evenodd" stroke="none" class="secondary-fill">
    
    
  </g><g fill="none" transform="translate(17.818 27.364)" stroke="none" class="secondary-fill">
      <path d="M24.8181818,3.81818182 C23.0637273,3.81818182 21.6363636,5.24554545 21.6363636,7 C21.6363636,8.75445455 23.0637273,10.1818182 24.8181818,10.1818182 C26.5726364,10.1818182 28,8.75445455 28,7 C28,5.24554545 26.5726364,3.81818182 24.8181818,3.81818182 L24.8181818,3.81818182 Z M26.0909091,7.63636364 C25.739,7.63636364 25.4545455,7.35127273 25.4545455,7 C25.4545455,6.64936364 25.1694545,6.36363636 24.8181818,6.36363636 C24.4662727,6.36363636 24.1818182,6.07854545 24.1818182,5.72727273 C24.1818182,5.376 24.4662727,5.09090909 24.8181818,5.09090909 C25.8707273,5.09090909 26.7272727,5.94745455 26.7272727,7 C26.7272727,7.35127273 26.4428182,7.63636364 26.0909091,7.63636364 L26.0909091,7.63636364 Z" fill="none" stroke="none" class="secondary-fill"></path>
      <path d="M33.7272727,1.27272727 L28.8310909,1.27272727 C27.6468182,0.439090909 26.264,0 24.8181818,0 C23.3723636,0 21.9901818,0.439090909 20.8052727,1.27272727 L0.636363636,1.27272727 C0.285090909,1.27272727 0,1.55781818 0,1.90909091 L0,12.0909091 C0,12.4428182 0.285090909,12.7272727 0.636363636,12.7272727 L3.81818182,12.7272727 L3.81818182,14 L3.18181818,14 C2.83054545,14 2.54545455,14.2844545 2.54545455,14.6363636 C2.54545455,14.9882727 2.83054545,15.2727273 3.18181818,15.2727273 L5.72727273,15.2727273 C6.07854545,15.2727273 6.36363636,14.9882727 6.36363636,14.6363636 C6.36363636,14.2844545 6.07854545,14 5.72727273,14 L5.09090909,14 L5.09090909,12.7272727 L20.8052727,12.7272727 C21.9895455,13.5609091 23.3723636,14 24.8181818,14 C26.264,14 27.6461818,13.5609091 28.8310909,12.7272727 L29.2727273,12.7272727 L29.2727273,14 L28.6363636,14 C28.2844545,14 28,14.2844545 28,14.6363636 C28,14.9882727 28.2844545,15.2727273 28.6363636,15.2727273 L31.1818182,15.2727273 C31.5337273,15.2727273 31.8181818,14.9882727 31.8181818,14.6363636 C31.8181818,14.2844545 31.5337273,14 31.1818182,14 L30.5454545,14 L30.5454545,12.7272727 L33.7272727,12.7272727 C34.0791818,12.7272727 34.3636364,12.4428182 34.3636364,12.0909091 L34.3636364,1.90909091 C34.3636364,1.55781818 34.0791818,1.27272727 33.7272727,1.27272727 L33.7272727,1.27272727 Z M15.9090909,10.1818182 L4.45454545,10.1818182 C4.10327273,10.1818182 3.81818182,9.89736364 3.81818182,9.54545455 C3.81818182,9.19354545 4.10327273,8.90909091 4.45454545,8.90909091 L15.9090909,8.90909091 C16.2603636,8.90909091 16.5454545,9.19354545 16.5454545,9.54545455 C16.5454545,9.89736364 16.2603636,10.1818182 15.9090909,10.1818182 L15.9090909,10.1818182 Z M15.9090909,7.63636364 L4.45454545,7.63636364 C4.10327273,7.63636364 3.81818182,7.35127273 3.81818182,7 C3.81818182,6.64872727 4.10327273,6.36363636 4.45454545,6.36363636 L15.9090909,6.36363636 C16.2603636,6.36363636 16.5454545,6.64872727 16.5454545,7 C16.5454545,7.35127273 16.2603636,7.63636364 15.9090909,7.63636364 L15.9090909,7.63636364 Z M15.9090909,5.09090909 L4.45454545,5.09090909 C4.10327273,5.09090909 3.81818182,4.80581818 3.81818182,4.45454545 C3.81818182,4.10327273 4.10327273,3.81818182 4.45454545,3.81818182 L15.9090909,3.81818182 C16.2603636,3.81818182 16.5454545,4.10327273 16.5454545,4.45454545 C16.5454545,4.80581818 16.2603636,5.09090909 15.9090909,5.09090909 L15.9090909,5.09090909 Z M24.8181818,11.4545455 C22.3624545,11.4545455 20.3636364,9.45572727 20.3636364,7 C20.3636364,4.54363636 22.3624545,2.54545455 24.8181818,2.54545455 C27.2739091,2.54545455 29.2727273,4.54363636 29.2727273,7 C29.2727273,9.45572727 27.2739091,11.4545455 24.8181818,11.4545455 L24.8181818,11.4545455 Z" fill="none" stroke="none" class="secondary-fill"></path>
    </g></g></g><style>
          .main-fill {fill: #313A3D;}
          .main-stroke {stroke: #313A3D;}
          .secondary-fill {fill: #29AB87;}
          .secondary-stroke {stroke: #29AB87;}

          .main-fill--darken {fill: #0f1213;}
          .main-stroke--darken {stroke: #0f1213;}
          .secondary-fill--darken {fill: #1a6d56;}
          .secondary-stroke--darken {stroke: #1a6d56;}

          .main-fill--darkener {fill: #000000;}
          .main-stroke--darkener {stroke: #000000;}
          .secondary-fill--darkener {fill: #104436;}
          .secondary-stroke--darkener {stroke: #104436;}
        </style></svg>