<svg xmlns="http://www.w3.org/2000/svg" width="70" height="70" viewBox="0 0 70 70" style="width: 100%; height: 100%;"><desc>Made with illustrio</desc>
  
<g class="content"><circle cx="50%" cy="50%" r="27px" class="main-fill"></circle><g class="base"><g fill="none" fill-rule="evenodd" stroke="none" class="secondary-fill">
    
    
  </g><g fill="none" transform="translate(20.364 17.818)" stroke="none" class="secondary-fill">
      <path d="M19.7272727,0 C14.6681818,0 10.5273636,3.95881818 10.2123636,8.93963636 C5.44345455,9.24127273 1.62145455,13.0530909 1.30518182,17.8181818 L0.636363636,17.8181818 C0.285090909,17.8181818 0,18.1026364 0,18.4545455 C0,18.8064545 0.285090909,19.0909091 0.636363636,19.0909091 L21,19.0909091 C21.3519091,19.0909091 21.6363636,18.8064545 21.6363636,18.4545455 C21.6363636,18.1026364 21.3519091,17.8181818 21,17.8181818 L20.3311818,17.8181818 C20.0161818,13.0728182 16.226,9.27309091 11.4850909,8.94281818 C11.7956364,4.66263636 15.3688182,1.27272727 19.7272727,1.27272727 C24.2887273,1.27272727 28,4.984 28,9.54545455 L28,33.7272727 C28,34.0791818 28.2844545,34.3636364 28.6363636,34.3636364 C28.9882727,34.3636364 29.2727273,34.0791818 29.2727273,33.7272727 L29.2727273,9.54545455 C29.2727273,4.28209091 24.9906364,0 19.7272727,0 L19.7272727,0 Z" fill="none" stroke="none" class="secondary-fill"></path>
      <path d="M5.72727273 20.3636364C5.376 20.3636364 5.09090909 20.6480909 5.09090909 21L5.09090909 23.5454545C5.09090909 23.8973636 5.376 24.1818182 5.72727273 24.1818182 6.07854545 24.1818182 6.36363636 23.8973636 6.36363636 23.5454545L6.36363636 21C6.36363636 20.6480909 6.07854545 20.3636364 5.72727273 20.3636364L5.72727273 20.3636364zM5.72727273 25.4545455C5.376 25.4545455 5.09090909 25.739 5.09090909 26.0909091L5.09090909 28.6363636C5.09090909 28.9882727 5.376 29.2727273 5.72727273 29.2727273 6.07854545 29.2727273 6.36363636 28.9882727 6.36363636 28.6363636L6.36363636 26.0909091C6.36363636 25.739 6.07854545 25.4545455 5.72727273 25.4545455L5.72727273 25.4545455zM5.72727273 30.5454545C5.376 30.5454545 5.09090909 30.8299091 5.09090909 31.1818182L5.09090909 33.7272727C5.09090909 34.0791818 5.376 34.3636364 5.72727273 34.3636364 6.07854545 34.3636364 6.36363636 34.0791818 6.36363636 33.7272727L6.36363636 31.1818182C6.36363636 30.8299091 6.07854545 30.5454545 5.72727273 30.5454545L5.72727273 30.5454545zM10.8181818 20.3636364C10.4669091 20.3636364 10.1818182 20.6480909 10.1818182 21L10.1818182 23.5454545C10.1818182 23.8973636 10.4669091 24.1818182 10.8181818 24.1818182 11.1694545 24.1818182 11.4545455 23.8973636 11.4545455 23.5454545L11.4545455 21C11.4545455 20.6480909 11.1694545 20.3636364 10.8181818 20.3636364L10.8181818 20.3636364zM10.8181818 25.4545455C10.4669091 25.4545455 10.1818182 25.739 10.1818182 26.0909091L10.1818182 28.6363636C10.1818182 28.9882727 10.4669091 29.2727273 10.8181818 29.2727273 11.1694545 29.2727273 11.4545455 28.9882727 11.4545455 28.6363636L11.4545455 26.0909091C11.4545455 25.739 11.1694545 25.4545455 10.8181818 25.4545455L10.8181818 25.4545455zM10.8181818 30.5454545C10.4669091 30.5454545 10.1818182 30.8299091 10.1818182 31.1818182L10.1818182 33.7272727C10.1818182 34.0791818 10.4669091 34.3636364 10.8181818 34.3636364 11.1694545 34.3636364 11.4545455 34.0791818 11.4545455 33.7272727L11.4545455 31.1818182C11.4545455 30.8299091 11.1694545 30.5454545 10.8181818 30.5454545L10.8181818 30.5454545zM15.9090909 20.3636364C15.5578182 20.3636364 15.2727273 20.6480909 15.2727273 21L15.2727273 23.5454545C15.2727273 23.8973636 15.5578182 24.1818182 15.9090909 24.1818182 16.2603636 24.1818182 16.5454545 23.8973636 16.5454545 23.5454545L16.5454545 21C16.5454545 20.6480909 16.2603636 20.3636364 15.9090909 20.3636364L15.9090909 20.3636364zM15.9090909 25.4545455C15.5578182 25.4545455 15.2727273 25.739 15.2727273 26.0909091L15.2727273 28.6363636C15.2727273 28.9882727 15.5578182 29.2727273 15.9090909 29.2727273 16.2603636 29.2727273 16.5454545 28.9882727 16.5454545 28.6363636L16.5454545 26.0909091C16.5454545 25.739 16.2603636 25.4545455 15.9090909 25.4545455L15.9090909 25.4545455zM15.9090909 30.5454545C15.5578182 30.5454545 15.2727273 30.8299091 15.2727273 31.1818182L15.2727273 33.7272727C15.2727273 34.0791818 15.5578182 34.3636364 15.9090909 34.3636364 16.2603636 34.3636364 16.5454545 34.0791818 16.5454545 33.7272727L16.5454545 31.1818182C16.5454545 30.8299091 16.2603636 30.5454545 15.9090909 30.5454545L15.9090909 30.5454545z" fill="none" stroke="none" class="secondary-fill"></path>
    </g></g></g><style>
          .main-fill {fill: #313A3D;}
          .main-stroke {stroke: #313A3D;}
          .secondary-fill {fill: #29AB87;}
          .secondary-stroke {stroke: #29AB87;}

          .main-fill--darken {fill: #0f1213;}
          .main-stroke--darken {stroke: #0f1213;}
          .secondary-fill--darken {fill: #1a6d56;}
          .secondary-stroke--darken {stroke: #1a6d56;}

          .main-fill--darkener {fill: #000000;}
          .main-stroke--darkener {stroke: #000000;}
          .secondary-fill--darkener {fill: #104436;}
          .secondary-stroke--darkener {stroke: #104436;}
        </style></svg>