<svg xmlns="http://www.w3.org/2000/svg" width="70" height="70" viewBox="0 0 70 70" style="width: 100%; height: 100%;"><desc>Made with illustrio</desc>
  
<g class="content"><circle cx="50%" cy="50%" r="27px" class="main-fill"></circle><g class="base"><g fill="none" fill-rule="evenodd" stroke="none" class="secondary-fill">
    
    
  </g><g fill="none" transform="translate(20 19)" stroke="none" class="secondary-fill">
      <path d="M28.6 15.6C28.1 15.6 27.9 16 27.9 16.5L27.9 22.6 21.3 22.6C20.8 22.6 20.8 22.7 20.8 23.2L20.8 29.3C20.8 29.8 21 30.2 21.5 30.2 22 30.2 22.2 29.8 22.2 29.3L22.2 26.8 27.9 26.8 27.9 29.3C27.9 29.8 28.1 30.2 28.6 30.2 29.1 30.2 29.3 29.8 29.3 29.3L29.3 16.5C29.3 16 29.1 15.6 28.6 15.6L28.6 15.6zM8.8 22.7L2.1 22.7 2.1 16.6C2.1 16.1 1.9 15.7 1.4 15.7.9 15.7.7 16.1.7 16.6L.7 29.5C.7 30 .9 30.4 1.4 30.4 1.9 30.4 2.1 30 2.1 29.5L2.1 27 7.8 27 7.8 29.5C7.8 30 8 30.4 8.5 30.4 9 30.4 9.2 30 9.2 29.5L9.2 23.4C9.3 22.8 9.3 22.7 8.8 22.7L8.8 22.7z" fill="none" stroke="none" class="secondary-fill"></path>
      <path d="M18.5,26.9 L16.5,26.9 L16.5,19.8 L22.2,19.8 C22.7,19.8 23.1,19.6 23.1,19.1 C23.1,18.6 22.7,18.4 22.2,18.4 L16.5,18.4 L16.5,11.3 L25.9,11.3 C27.2,11.3 27.2,10.7 27.2,10.2 C27.2,5.6 22.3,0.5 15.7,0.5 C9.1,0.5 4.2,5.7 4.2,10.3 C4.2,10.8 4.3,11.4 5.6,11.4 L5.6,11.4 L15,11.4 L15,18.5 L9.3,18.5 C8.8,18.5 8.4,18.7 8.4,19.2 C8.4,19.7 8.8,19.9 9.3,19.9 L15,19.9 L15,27 L13,27 C12.5,27 12.1,27.9 12.1,28.4 C12.1,28.9 12.5,29.8 13,29.8 L18.5,29.8 C19,29.8 19.4,28.9 19.4,28.4 C19.4,27.9 19,26.9 18.5,26.9 L18.5,26.9 Z M14.7,5.4 L10.2,7.9 C10,8 9.9,8 9.7,8 C9.4,8 9.1,7.8 8.9,7.5 C8.7,7 8.8,6.5 9.3,6.2 L13.8,3.7 C14.2,3.5 14.8,3.6 15.1,4.1 C15.3,4.6 15.2,5.2 14.7,5.4 L14.7,5.4 Z" fill="none" stroke="none" class="secondary-fill"></path>
    </g></g></g><style>
          .main-fill {fill: #313A3D;}
          .main-stroke {stroke: #313A3D;}
          .secondary-fill {fill: #29AB87;}
          .secondary-stroke {stroke: #29AB87;}

          .main-fill--darken {fill: #0f1213;}
          .main-stroke--darken {stroke: #0f1213;}
          .secondary-fill--darken {fill: #1a6d56;}
          .secondary-stroke--darken {stroke: #1a6d56;}

          .main-fill--darkener {fill: #000000;}
          .main-stroke--darkener {stroke: #000000;}
          .secondary-fill--darkener {fill: #104436;}
          .secondary-stroke--darkener {stroke: #104436;}
        </style></svg>