<svg xmlns="http://www.w3.org/2000/svg" width="70" height="70" viewBox="0 0 70 70" style="width: 100%; height: 100%;"><desc>Made with illustrio</desc>
  
<g class="content"><circle cx="50%" cy="50%" r="27px" class="main-fill"></circle><g class="base"><g fill="none" fill-rule="evenodd" stroke="none" class="secondary-fill">
    
    
    <path fill="none" d="M6.58823529,0.149132941 C5.16025053,0.307025559 3.85791041,0.919013324 2.79227941,1.77045647 L6.58823529,5.56641235 L6.58823529,0.149132941 Z M8.23529412,0.149132941 L8.23529412,5.56641235 L12.03125,1.77045647 C10.9656186,0.919013324 9.66327888,0.307025559 8.23529412,0.149132941 Z M1.62132353,2.94141235 C0.769880259,4.00704335 0.1578927,5.30938265 0,6.73736824 L5.41727941,6.73736824 L1.62132353,2.94141235 Z M13.2022059,2.94141235 L9.39338235,6.73736824 L14.7720588,6.73736824 C14.6128492,5.31173259 14.0528624,4.00605841 13.2022059,2.94141235 Z M0,8.38442706 C0.1578927,9.81241265 0.769880259,11.1147519 1.62132353,12.1803829 L5.41727941,8.38442706 L0,8.38442706 Z M8.23529412,8.38442706 L9.72794118,18.26678 L26.5073529,18.26678 L28,8.38442706 L8.23529412,8.38442706 Z M6.72977941,9.40097118 L2.79227941,13.3384712 C4.06068024,14.3541152 5.66045076,14.9726624 7.41176471,14.9726624 C7.46464106,14.9726624 7.51376129,14.9614953 7.56617647,14.9597947 L6.72977941,9.40097118 Z M9.98529412,19.9138388 L12.3529412,35.5608976 L23.8823529,35.5608976 L26.25,19.9138388 L9.98529412,19.9138388 Z" transform="translate(21 17.145)" stroke="none" class="secondary-fill"></path>
  </g></g></g><style>
          .main-fill {fill: #313A3D;}
          .main-stroke {stroke: #313A3D;}
          .secondary-fill {fill: #29AB87;}
          .secondary-stroke {stroke: #29AB87;}

          .main-fill--darken {fill: #0f1213;}
          .main-stroke--darken {stroke: #0f1213;}
          .secondary-fill--darken {fill: #1a6d56;}
          .secondary-stroke--darken {stroke: #1a6d56;}

          .main-fill--darkener {fill: #000000;}
          .main-stroke--darkener {stroke: #000000;}
          .secondary-fill--darkener {fill: #104436;}
          .secondary-stroke--darkener {stroke: #104436;}
        </style></svg>