<svg xmlns="http://www.w3.org/2000/svg" width="70" height="70" viewBox="0 0 70 70" style="width: 100%; height: 100%;"><desc>Made with illustrio</desc>
  
<g class="content"><circle cx="50%" cy="50%" r="27px" class="main-fill"></circle><g class="base"><g fill="none" fill-rule="evenodd" stroke="none" class="secondary-fill">
    
    
  </g><g fill="none" transform="translate(19.09 21.636)" stroke="none" class="secondary-fill">
      <path d="M31.1818182,0 L0.636363636,0 C0.285090909,0 0,0.285090909 0,0.636363636 L0,21 C0,21.3519091 0.285090909,21.6363636 0.636363636,21.6363636 L15.2727273,21.6363636 L15.2727273,25.4545455 L10.8181818,25.4545455 C10.4669091,25.4545455 10.1818182,25.739 10.1818182,26.0909091 C10.1818182,26.4428182 10.4669091,26.7272727 10.8181818,26.7272727 L21,26.7272727 C21.3519091,26.7272727 21.6363636,26.4428182 21.6363636,26.0909091 C21.6363636,25.739 21.3519091,25.4545455 21,25.4545455 L16.5454545,25.4545455 L16.5454545,21.6363636 L31.1818182,21.6363636 C31.5337273,21.6363636 31.8181818,21.3519091 31.8181818,21 L31.8181818,0.636363636 C31.8181818,0.285090909 31.5337273,0 31.1818182,0 L31.1818182,0 Z M20.0117273,11.3877273 L12.3753636,15.2059091 C12.2856364,15.2504545 12.1882727,15.2727273 12.0909091,15.2727273 C11.9744545,15.2727273 11.8586364,15.2409091 11.7561818,15.1779091 C11.5690909,15.0614545 11.4545455,14.8571818 11.4545455,14.6363636 L11.4545455,7 C11.4545455,6.77918182 11.5690909,6.57490909 11.7561818,6.45845455 C11.9439091,6.342 12.1787273,6.33181818 12.3753636,6.43045455 L20.0117273,10.2486364 C20.2274545,10.3568182 20.3636364,10.577 20.3636364,10.8181818 C20.3636364,11.0593636 20.2274545,11.2795455 20.0117273,11.3877273 L20.0117273,11.3877273 Z" fill="none" stroke="none" class="secondary-fill"></path>
      <polygon points="12.727 13.607 18.304 10.818 12.727 8.03" fill="none" stroke="none" class="secondary-fill"></polygon>
    </g></g></g><style>
          .main-fill {fill: #313A3D;}
          .main-stroke {stroke: #313A3D;}
          .secondary-fill {fill: #29AB87;}
          .secondary-stroke {stroke: #29AB87;}

          .main-fill--darken {fill: #0f1213;}
          .main-stroke--darken {stroke: #0f1213;}
          .secondary-fill--darken {fill: #1a6d56;}
          .secondary-stroke--darken {stroke: #1a6d56;}

          .main-fill--darkener {fill: #000000;}
          .main-stroke--darkener {stroke: #000000;}
          .secondary-fill--darkener {fill: #104436;}
          .secondary-stroke--darkener {stroke: #104436;}
        </style></svg>