<svg xmlns="http://www.w3.org/2000/svg" width="70" height="70" viewBox="0 0 70 70" style="width: 100%; height: 100%;"><desc>Made with illustrio</desc>
  
<g class="content"><circle cx="50%" cy="50%" r="27px" class="main-fill"></circle><g class="base"><g fill="none" fill-rule="evenodd" stroke="none" class="secondary-fill">
    
    
  </g><g fill="none" transform="translate(19.09 20.364)" stroke="none" class="secondary-fill">
      <path d="M31.1818182 24.1818182L.636363636 24.1818182C.285090909 24.1818182 0 24.4662727 0 24.8181818 0 25.1700909.285090909 25.4545455.636363636 25.4545455L2.54545455 25.4545455 2.54545455 28.6363636C2.54545455 28.9882727 2.83054545 29.2727273 3.18181818 29.2727273 3.53309091 29.2727273 3.81818182 28.9882727 3.81818182 28.6363636L3.81818182 25.4545455 28 25.4545455 28 28.6363636C28 28.9882727 28.2844545 29.2727273 28.6363636 29.2727273 28.9882727 29.2727273 29.2727273 28.9882727 29.2727273 28.6363636L29.2727273 25.4545455 31.1818182 25.4545455C31.5337273 25.4545455 31.8181818 25.1700909 31.8181818 24.8181818 31.8181818 24.4662727 31.5337273 24.1818182 31.1818182 24.1818182L31.1818182 24.1818182zM23.5454545 8.90909091C26.0011818 8.90909091 28 6.91090909 28 4.45454545 28 1.99818182 26.0011818 0 23.5454545 0 21.0897273 0 19.0909091 1.99818182 19.0909091 4.45454545 19.0909091 6.91090909 21.0897273 8.90909091 23.5454545 8.90909091L23.5454545 8.90909091zM22.2727273 3.81818182L22.9090909 3.81818182 22.9090909 2.54545455C22.9090909 2.19418182 23.1935455 1.90909091 23.5454545 1.90909091 23.8973636 1.90909091 24.1818182 2.19418182 24.1818182 2.54545455L24.1818182 4.45454545C24.1818182 4.80581818 23.8973636 5.09090909 23.5454545 5.09090909L22.2727273 5.09090909C21.9208182 5.09090909 21.6363636 4.80581818 21.6363636 4.45454545 21.6363636 4.10327273 21.9208182 3.81818182 22.2727273 3.81818182L22.2727273 3.81818182zM1.90909091 22.9090909L9.54545455 22.9090909C9.89672727 22.9090909 10.1818182 22.6246364 10.1818182 22.2727273L10.1818182 18.4545455C10.1818182 16.7000909 8.75445455 15.2727273 7 15.2727273L4.45454545 15.2727273C2.70009091 15.2727273 1.27272727 16.7000909 1.27272727 18.4545455L1.27272727 22.2727273C1.27272727 22.6246364 1.55781818 22.9090909 1.90909091 22.9090909L1.90909091 22.9090909zM12.0909091 22.9090909L19.7272727 22.9090909C20.0791818 22.9090909 20.3636364 22.6246364 20.3636364 22.2727273L20.3636364 18.4545455C20.3636364 16.7000909 18.9362727 15.2727273 17.1818182 15.2727273L14.6363636 15.2727273C12.8819091 15.2727273 11.4545455 16.7000909 11.4545455 18.4545455L11.4545455 22.2727273C11.4545455 22.6246364 11.7396364 22.9090909 12.0909091 22.9090909L12.0909091 22.9090909zM24.8181818 15.2727273C23.0637273 15.2727273 21.6363636 16.7000909 21.6363636 18.4545455L21.6363636 22.2727273C21.6363636 22.6246364 21.9208182 22.9090909 22.2727273 22.9090909L29.9090909 22.9090909C30.261 22.9090909 30.5454545 22.6246364 30.5454545 22.2727273L30.5454545 18.4545455C30.5454545 16.7000909 29.1180909 15.2727273 27.3636364 15.2727273L24.8181818 15.2727273 24.8181818 15.2727273z" fill="none" stroke="none" class="secondary-fill"></path>
    </g></g></g><style>
          .main-fill {fill: #313A3D;}
          .main-stroke {stroke: #313A3D;}
          .secondary-fill {fill: #29AB87;}
          .secondary-stroke {stroke: #29AB87;}

          .main-fill--darken {fill: #0f1213;}
          .main-stroke--darken {stroke: #0f1213;}
          .secondary-fill--darken {fill: #1a6d56;}
          .secondary-stroke--darken {stroke: #1a6d56;}

          .main-fill--darkener {fill: #000000;}
          .main-stroke--darkener {stroke: #000000;}
          .secondary-fill--darkener {fill: #104436;}
          .secondary-stroke--darkener {stroke: #104436;}
        </style></svg>